<?xml version="1.0" encoding="UTF-8"?><svg id="Capa_1" xmlns="http://www.w3.org/2000/svg" viewBox="0 0 167.34 107.27"><defs><style>.cls-1{letter-spacing:-.04em;}.cls-2{opacity:.95;}.cls-2,.cls-3,.cls-4{fill:#34b6e5;fill-rule:evenodd;isolation:isolate;stroke-width:0px;}.cls-3{opacity:.94;}.cls-4{opacity:.91;}.cls-5{fill:#40b6e6;font-family:BankGothicBT-Medium, 'BankGothic Md BT';font-size:24px;font-weight:500;}.cls-6{letter-spacing:-.02em;}</style></defs><path class="cls-3" d="M77.22,0h2c5.6,4.14,11.6,7.81,18,11,1.16,8.31,1.33,16.65.5,25-3.02,1.67-6.02,3.34-9,5-.77-.14-1.44-.48-2-1-2.61-4.94-5.61-9.6-9-14-3.1,5.2-6.43,10.2-10,15-3.39-1.28-6.56-2.94-9.5-5-1.16-7.98-1.33-15.98-.5-24,6.48-4.15,12.98-8.15,19.5-12Z"/><path class="cls-2" d="M52.22,41c4.14,2.24,8.14,4.74,12,7.5-3.33,5-6.67,10-10,15,6.32.5,12.66.67,19,.5.33,4.38,0,8.72-1,13-5.84,3.75-11.84,7.25-18,10.5-1.33.67-2.67.67-4,0-5.75-3.63-11.58-7.13-17.5-10.5-.67-8-.67-16,0-24,6.48-4.15,12.98-8.15,19.5-12Z"/><path class="cls-2" d="M103.22,41c7.05,3.61,13.88,7.61,20.5,12,.67,8,.67,16,0,24-5.92,3.37-11.75,6.87-17.5,10.5-1.33.67-2.67.67-4,0-6.16-3.25-12.16-6.75-18-10.5-.99-4.28-1.33-8.62-1-13,6.34.17,12.68,0,19-.5-3.33-5-6.67-10-10-15,3.73-2.52,7.4-5.02,11-7.5Z"/><path class="cls-4" d="M67.22,43h22v3h-8v16h-5v-16h-9v-3Z"/></svg>