<?xml version="1.0" encoding="UTF-8"?><svg id="Capa_1" xmlns="http://www.w3.org/2000/svg" viewBox="0 0 432.85 403.83"><defs><style>.cls-1{fill:#fbc3cb;}.cls-1,.cls-2,.cls-3,.cls-4,.cls-5,.cls-6,.cls-7,.cls-8,.cls-9,.cls-10,.cls-11,.cls-12,.cls-13,.cls-14,.cls-15,.cls-16{stroke-width:0px;}.cls-2{fill:#f2f2f7;}.cls-3{fill:#e584b5;}.cls-4{fill:#cec9ee;}.cls-5{fill:#5ee3cb;}.cls-6{fill:#252164;}.cls-7{fill:#e0dcf5;}.cls-8{fill:#a7d9fb;}.cls-9{fill:#242e9f;}.cls-10{fill:#9bda5f;}.cls-11{fill:#64bcdd;}.cls-12{fill:#6569be;}.cls-13{fill:#48b0be;}.cls-14{fill:#7bc4f7;}.cls-15{fill:#8574f4;}.cls-16{fill:#fefefe;}</style></defs><path class="cls-9" d="M189.32,72.89c-.03-20.03-.03-40.06-.13-60.09-.03-5.54.89-10.41,6.72-12.8h189.91c2.48,1.11,4.87,2.32,6.1,4.96.05,2.32.16,4.65.16,6.97,0,56.06-.03,112.11.08,168.17,0,4.2-.72,5.43-5.26,4.41-15.3-3.43-30.71-6.38-46.07-9.51-6.76-1.51-13.51-3.1-20.29-4.5-17.22-3.57-34.46-7.06-51.69-10.58-6.04-6.28-13.78-5.03-21.29-4.81-11.56-2.34-23.11-4.67-34.67-7.01-7.7-1.72-15.39-3.44-23.09-5.16-.07-2.47-.35-4.96-.17-7.42.62-8.55,1.4-17.08,2.12-25.62.15-1.57.29-3.13.46-4.92.97.82,1.79,1.51,2.61,2.21,3.11,5.37,6.6,9.93,13.87,6.73-.12,2.34,1.6,2.59,3.27,2.89,5.24.93,10.47,1.9,15.72,2.74,1.29.21,3.14,1.33,3.6-1.09.46-2.39-.93-3.4-3.12-3.41-6.19-.04-11.94-2.54-18.01-3.19,2.01-3.79,4.07-7.56,4.91-11.83.31-.33.61-.66.92-.98,24.43,3.96,48.87,7.92,73.95,11.98-1.16-2.71-3.38-1.61-4.13-3.1.07-12.28.14-24.56.21-36.83,1.49-.26,3.52.4,3.78-2.07.8-7.71.41-15.23-3.85-22.06-.91-1.62,1.53-5.02-2.72-4.89-3.31.1-6.24.36-5.32,4.92-3.4,4.83-4.62,10.54-6.46,15.99-3,8.9-2.95,8.92,6.4,9.04.04,11.65.08,23.3.13,34.95-4.41-.68-8.83-1.35-13.24-2.03-.02-4.67-.04-9.34-.05-14.01.05-11.48,0-22.97.22-34.45.06-3.19-.77-4.38-4.11-4.43-3.32-.05-4.27,1.02-4.21,4.29.18,8.82,0,17.65-.02,26.47-.38.18-.75.37-1.13.55.27.28.54.56.82.84.2,2.26.4,4.53.6,6.79-.07,3.97-.14,7.93-.21,11.9-4.33.79-8.46-1-12.74-.95,0-5.97-.02-11.95-.03-17.92.11-4.32.21-8.63.32-12.95,6.81-.16,6.86-.16,5.65-6.92-.49-2.74-1.25-5.43-1.91-8.14-.38-1.55-.37-3.61-2.41-3.83-2.4-.25-2.81,2.04-3.35,3.65-1.55,4.65-2.88,9.38-4.29,14.08-1.73-.03-2.26.91-2.22,2.52.06,2.16,0,4.32-.02,6.48-.33,2.07-3.47,4.1-.11,6.24.04,4.91.07,9.82.11,14.72-4.4.2-8.65-.65-12.83-1.92-.03-6.4-.06-12.8-.09-19.2,2.66-3.59,3.77-7.38,1.45-11.6,2.74-2.06,6.47-3.28,6.75-7.62-3.35-1.17-5.08,2.17-7.79,2.41-.04-.68-.08-1.35-.12-2.03.08-.07.17-.14.25-.21-.13-.13-.26-.27-.4-.4l.05-.31c-.28-2.83-1.03-5.2-3.49-7.21-2.27-1.85-2.52-2.38-3.46-.21-3,6.98-5.85,14.02-6.94,21.62-.88,1.14-1.52,2.54-.25,3.54,1.79,1.41,2.97-.16,4.1-1.39.68-.37,1.36-.74,2.05-1.12.18.77.37,1.53.55,2.3-1.28,3.75-2.55,7.5-3.83,11.24-1.56,3.07-2.46,6.45-4.52,9.31-2.06,2.86-3.34,2.54-5.27-.3-1.89-2.79-.81-6.65-3.65-8.93-1.72-5.72-3.82-11.21-8.85-14.97ZM267.9,74.99c-.72.48-1.05,1.13-.74,1.99.04.11.26.16.39.25.1-.76.2-1.51.3-2.27.27-.3.54-.59.82-.89-.16-.11-.32-.22-.49-.32-.1.42-.19.84-.29,1.25ZM328.92,135.45c.81,2.56,1.93,3.74,3.95.88,8.45,1.58,16.89,3.23,25.36,4.68,1.15.2,3.27,2.19,3.64-1.13.28-2.55-1.14-2.96-3.15-3.31-8.64-1.48-17.26-3.07-25.88-4.62-.28-1.23-.28-2.67-2.11-2.74-1.34-.05-1.45,1.02-1.76,1.91-5.38-.98-10.75-2.01-16.14-2.9-1.29-.21-3.12-1.24-3.74.97-.63,2.26.96,2.81,2.76,3.13,5.69,1.02,11.38,2.08,17.07,3.12ZM328.97,156.11c-5.05-.93-10.08-2-15.16-2.71-1.57-.22-4.25-2.21-4.74,1.23-.45,3.1,2.52,2.6,4.19,2.95,5.18,1.09,10.43,1.88,15.65,2.79.77,2.61,1.87,3.81,3.95.95,8.46,1.58,16.9,3.22,25.38,4.68,1.16.2,3.25,2.18,3.63-1.15.3-2.59-1.12-2.95-3.14-3.29-8.65-1.48-17.27-3.09-25.91-4.64-.26-1.26-.3-2.68-2.12-2.73-1.36-.04-1.45,1.03-1.74,1.93ZM329.06,143.74c-5.5-1-11-2.04-16.52-2.98-1.24-.21-3.04-1.76-3.53.88-.39,2.11.88,2.93,2.81,3.26,5.73.96,11.45,2.02,17.18,3.04.74,2.44,1.67,4.11,3.83.98,8.32,1.56,16.63,3.19,24.97,4.63,1.29.22,3.37,1.82,3.99-.95.61-2.71-1.14-3.29-3.39-3.67-8.51-1.42-17-2.98-25.5-4.49-.27-1-.18-2.22-1.65-2.44-1.4-.21-1.99.51-2.19,1.75ZM353.82,46.05c-13.25-1.21-26.54-.97-39.82-1.21-3.45-.06-5.97.73-5.97,4.8,0,20.28-.02,40.56.06,60.83.01,3.11,1.22,5.13,4.93,5.6,10.34,1.31,20.63,3.03,30.94,4.59,9.33,1.45,18.67,2.84,27.99,4.37,4.22.69,6.09-.61,6.06-5.2-.14-22.42-.1-44.85-.04-67.28.01-4.35-1.74-6.45-6.21-6.39-5.98.08-11.96-.07-17.94-.12ZM289.86,13.04c-24.32,0-48.64,0-72.96,0-6,0-11.99.06-17.99-.02-2.72-.04-4.05,1.03-3.93,3.82.07,1.66.09,3.34,0,5-.18,3,1.16,4.12,4.14,4.14,18.78.12,37.53,1.27,56.3,1.85,18.44.57,36.86,1.33,55.3,1.96,19.93.68,39.87,1.25,59.8,2.06,13.39.54,13.2.19,13.45-13.4.08-4.52-1.31-5.53-5.63-5.5-29.48.19-58.97.1-88.45.1ZM294.71,139.04c0-3.99-.02-7.98,0-11.97.03-4.24-1.55-6.57-6.21-7.33-15.05-2.45-30.03-5.36-45.04-8.1-5.22-.95-6.65.09-6.73,5.43-.11,7.64.05,15.29-.07,22.93-.05,3.14,1.04,4.93,4.26,5.6,16.05,3.33,32.09,6.76,48.13,10.17,3.96.84,5.6-1.05,5.64-4.77.04-3.99.01-7.98.01-11.97ZM211.38,121.01c-1.1-.06-2.49-.42-2.62,1.69-.1,1.73.77,2.34,2.25,2.62,6.02,1.11,12.04,2.25,18.06,3.37,1.07.2,2.03.16,2.15-1.24.14-1.59.03-3.01-2.01-3.35-5.88-1-11.76-2.03-17.84-3.09ZM211.95,129.98c-1.59-.06-2.85-.3-3.06,1.38-.2,1.53.28,2.44,1.99,2.75,6,1.07,11.98,2.26,17.96,3.43,1.35.26,2.33,0,2.48-1.52.14-1.4-.05-2.68-1.79-2.98-6-1.04-12-2.09-17.57-3.06ZM202.45,85.25c.19-.06.38-.12.57-.18v-48.02c-.19,0-.38,0-.57.01v48.19ZM202.4,123.91c.37-.1,1.93,1.08,2.24-1.21.41-3.06-1.9-2.83-3.69-3.28-1.23-.31-2.27-.35-2.43,1.35-.22,2.37.96,3.27,3.88,3.14ZM204.65,129.8c-.54-1.47-2.57-1.58-4.5-1.75-1.63-.14-1.92.99-1.84,2.26.17,2.58,2.17,2.48,3.99,2.66,1.66.16,2.53-.48,2.35-3.18Z"/><path class="cls-11" d="M24.51,228.42c-2.93-3.33-7.48-3.55-11.05-5.74-3.33-2.05-5.26-4.2-5.66-8.48-2.03-21.91-4.49-43.77-6.79-65.66-.1-.97.06-2.03-1.02-2.61v-12c1.95-4.14,5.16-6.09,9.78-6.26,3.11-.11,6.19-.87,9.28-1.34.51,4.63-3.02,5.16-6.08,5.42-3.85.33-5.39,2.37-6.41,5.77-1.77,5.87.38,11.54.73,17.24.73,11.85,2.57,23.62,3.64,35.45.58,6.41,1.73,7.42,8.01,6.24,6.97-1.3,13.79-3.53,20.97-3.58.36,2.26.72,4.52,1.07,6.79-4.98,1.44-9.96,2.87-14.93,4.31-1.76,2.78-1.83,5.26,1.53,6.79,9.14,4.17,18.04,8.86,27.49,12.33-.74,3.24-1.57,6.47-.51,9.81-2.07.24-3.93-.6-5.8-1.23-5.01-1.7-9.97-3.54-14.95-5.31-3.29-1.17-5.2-.39-4.87,3.5-1.48-.48-2.96-.96-4.44-1.44Z"/><path class="cls-2" d="M261.88,403.83c-2.03-2.63-2.18-5.68-2-8.82.32-5.77-1.69-11.41-.97-17.2,1.65,0,3.29,0,4.94,0-.45,8.71,1.72,17.31,1.03,26.03h-3Z"/><path class="cls-10" d="M397.89,189.7c1.22-.14,2.56-1.73,3.6-.3.96,1.31-.6,2.41-1.21,3.47-7.94,13.85-11.15,29.15-13.74,44.91,8.05-10.65,16.17-20.99,31.13-20.07-18.16,12.04-25.92,30.28-30.79,50.47,4.18-6.77,7.38-15.02,17.98-9.9-3.37.24-6.75.78-9.14,3.35-2.42,2.59-3.96,5.72-4.06,9.39-1.4,2.2-.72,4.65-.82,7-2.34.75-4.68,1.49-7.02,2.24-6.68-.21-13.36-.41-20.04-.62.26-3.43-.24-6.72-1.9-9.77-1.08-8.88-7.6-12.55-16.18-15.58,6.6-1.01,11.67-.6,16.26,2.72,1.43-6.64-3.18-20.41-10.81-32.81-2.41-4.45-6.22-7.44-10.39-10.09-1.24-.79-3.41-.84-2.97-3.22,5.89-2.18,11.35-1.13,16.62,2.05,4.65,2.8,7.71,7.2,11.44,10.93.04.16.05.33.13.46.04.06.2.05.31.08l-.52-.46c-1.11-12.19-5.19-23.09-13.92-31.96-.86-1.61-.59-2.77,1.35-1.76,2.55,1.33,4.83,3.16,7.23,4.78,11.17,13.35,13.57,29.73,15.94,46.21,2.85-13.3,4.73-26.79,10.7-39.15,2.96-4.68,6.33-9.01,10.8-12.37Z"/><path class="cls-13" d="M304.89,322.85c-13,9.08-27.42,14.57-43.07,16.93-1.86-.93-3.88-.87-5.88-.98-1.01-.36-2.01-.72-3.02-1.09,6.44-2.45,8.76-8.17,9.46-14.04.3-2.56,1.9-7.54-3.38-8.78,1-5.81,2-11.63,3-17.44,2.31-7.73,3.13-15.76,4.75-23.63.34-2.11.89-4.21.99-6.33.35-7.93,4.3-12.86,11.91-15.06,1.71-.49,3.26-1.54,4.88-2.34,8.14-2.22,15.51-6.34,23.28-9.48,2.24-.96,4.58-1.72,6.68-2.92,2.96-1.69,5.23-1.22,7.14,1.51-.01.86-.03,1.72-.04,2.58-1.11.32-2.26.54-3.32.99-12.82,5.49-25.54,11.2-38.47,16.42-3.74,1.51-5.79,3.99-6.62,7.41-.73,3.01-1.77,6.08-1.34,9.3-.8,4.89-1.47,9.81-2.43,14.67-1.43,7.21-.55,8.75,6.66,9.27,11.72.83,23.46,1.39,35.2,2.06-.28,4.68-1.94,9.2-1.51,13.96-1.15,2.68-3.08,4.81-4.9,7.01Z"/><path class="cls-4" d="M397.89,189.7c-4.47,3.36-7.84,7.68-10.8,12.37-8.66-3.18-17.61-5.29-26.64-7.06-2.4-1.62-4.68-3.45-7.23-4.78-1.95-1.02-2.21.14-1.36,1.75-4.18-.35-8.19-1.36-12.02-3.07-.59-4.71.95-9.26.99-13.93,15.37,3.13,30.77,6.08,46.07,9.51,4.54,1.02,5.27-.21,5.26-4.41-.11-56.06-.07-112.11-.08-168.17,0-2.32-.1-4.65-.16-6.97,4.51.88,5.98,3.57,5.98,8.17-.1,58.86-.03,117.72,0,176.58Z"/><path class="cls-4" d="M363.78,279.65c6.68.21,13.36.41,20.04.62.91,6.7.46,13.43.62,20.14.18,7.43.17,14.88.28,22.31.04,2.95-1.11,4.98-4.89,5.51-3.48.49-6.92.66-10.36.59-10.73-.22-12.84-2.02-14.99-12.2-.06-.28-.41-.5-.62-.75-.06-2.02-.12-4.03-.17-6.05-1.29-11.3-2.57-22.59-3.86-33.89,4.26,2.71,9.17,3.01,13.96,3.71Z"/><path class="cls-2" d="M353.68,309.82c.06,2.02.12,4.03.17,6.05-1.5,1.68-3.69,2.17-5.55,3.23-2.9,1.65-6.5,3.25-6.24,7,.24,3.46,3.6,5.33,6.46,7.05.7.42,1.56.54,2.33.85,13.41,5.38,27.42,4.75,41.35,3.66,6.23-.49,12.47-1.95,17.86-5.6,6.39-4.33,6.23-8.49-.54-12.31-3.79-2.13-7.94-3.4-12.2-4.18-4.97-.9-5.76-3.57-3.56-7.71,8.44,1.53,17,2.46,25.05,5.81,4.18,1.74,8.18,3.52,11.32,6.96,3.63,3.98,3.72,7.52-.31,11.08-6.17,5.44-13.68,7.96-21.6,9.46-23.88,4.52-47.56,4.88-70.84-3.33-4.28-1.51-8.15-3.63-11.2-7.14-2.9-3.34-2.88-6.41.03-9.73,5.37-6.1,12.85-8.01,20.18-9.94,2.29-.61,4.82-1.11,7.3-1.22Z"/><path class="cls-7" d="M393.76,307.88c-2.2,4.13-1.41,6.81,3.56,7.71,4.26.77,8.41,2.04,12.2,4.18,6.77,3.81,6.93,7.97.54,12.31-5.38,3.65-11.63,5.11-17.86,5.6-13.93,1.09-27.94,1.72-41.35-3.66-.77-.31-1.63-.43-2.33-.85-2.86-1.72-6.21-3.6-6.46-7.05-.26-3.75,3.34-5.35,6.24-7,1.86-1.06,4.05-1.55,5.55-3.23.21.25.57.47.62.75,2.15,10.17,4.27,11.98,14.99,12.2,3.45.07,6.88-.09,10.36-.59,3.77-.53,4.93-2.57,4.89-5.51-.11-7.44-.1-14.88-.28-22.31-.16-6.7.29-13.43-.62-20.14,2.34-.75,4.68-1.49,7.02-2.24,2.26.04,4.07-1.16,5.97-2.13-.39,10.72-3.3,21.2-3.05,31.98Z"/><path class="cls-14" d="M271.87,275.89c-.43-3.22.61-6.29,1.34-9.3.83-3.42,2.87-5.9,6.62-7.41,12.93-5.21,25.65-10.93,38.47-16.42,1.05-.45,2.21-.66,3.32-.99-1.81,12.46-3.84,24.87-6.45,37.19-14.5-.12-28.89-1.68-43.29-3.08Z"/><path class="cls-11" d="M271.87,275.89c14.4,1.39,28.8,2.96,43.29,3.08-1.29,7.64-2.58,15.28-3.87,22.92-11.73-.67-23.47-1.23-35.2-2.06-7.21-.51-8.09-2.06-6.66-9.27.96-4.86,1.63-9.78,2.43-14.67Z"/><path class="cls-2" d="M321.65,239.2c-1.91-2.72-4.18-3.2-7.14-1.51-2.1,1.2-4.45,1.96-6.68,2.92-.42-2.12-2.22-2-3.5-1.64-6.5,1.83-12.94-.76-19.4-.05-.35-3.02,1.62-3.06,3.78-3.04,5.8.05,11.61.26,17.39-.04,8.92-.47,17.72-1.98,25.92-5.65,3.55-1.59,7.62-3.52,7.66-8.23.04-4.48-3.72-6.35-7.2-7.93-1.53-.69-2.57-1.4-2.66-3.12.06-.8.22-1.56,1.01-1.99,2.62-.38,4.79.82,6.97,1.98-.44,2.38,1.73,2.44,2.97,3.22,4.17,2.65,7.98,5.64,10.39,10.09-3.68,6.41-10.09,8.5-16.53,10.81-4.29,1.54-9.23,1.04-12.98,4.18Z"/><path class="cls-4" d="M304.89,322.85c1.82-2.21,3.75-4.34,4.9-7.01,1.65,1.46,1.03,3.43,1.01,5.17-.13,8.82,1.63,17.55,1.15,26.38-.08,1.44.5,2.93.77,4.39-1.62.36-3.24.71-4.86,1.07-.67-8.46-1.32-16.92-2.01-25.37-.13-1.58.52-3.33-.96-4.63Z"/><path class="cls-4" d="M255.95,338.8c2,.11,4.02.05,5.88.98-.54,7.38,1.03,14.67.97,22.03-1.62.33-3.23.66-4.85,1l-.11-1.97c-1.79-7.25-.11-14.79-1.89-22.04Z"/><path class="cls-13" d="M363.78,279.65c-4.8-.7-9.7-1.01-13.96-3.71-.57-2.56,1.09-3.56,3.09-4.08,2.96-.76,5.98-1.33,8.97-1.98,1.66,3.06,2.17,6.34,1.9,9.77Z"/><path class="cls-7" d="M257.94,362.8c1.62-.33,3.23-.66,4.85-1,.35,5.33.7,10.67,1.05,16-1.65,0-3.29,0-4.94,0-.84-2.59-1.24-5.24-1.02-7.97.02-2.35.04-4.69.06-7.04Z"/><path class="cls-2" d="M312.86,364.85c2.05,3.89.64,8.04.88,12.07.09,1.44-1.05,1.95-2.38,1.79-1.54-.18-2.53-1.2-2.4-2.65.35-3.84-1.07-7.48-1.06-11.26,1.65.02,3.3.03,4.96.05Z"/><path class="cls-7" d="M312.86,364.85c-1.65-.02-3.3-.03-4.96-.05-.01-3.98-.03-7.97-.04-11.95,1.62-.35,3.24-.71,4.86-1.07.05,4.35.09,8.71.14,13.07Z"/><path class="cls-13" d="M396.81,275.9c-1.9.97-3.71,2.17-5.97,2.13.09-2.35-.59-4.8.82-7,2.07,1.25,5.85.69,5.15,4.87Z"/><path class="cls-7" d="M112.65,180.51c1.47,2.52,4.26,2.23,6.52,3.01,8.09,2.76,16.2,5.46,24.33,8.12,2.02.66,4.01,1.6,6.24,1.26,4.92,3.16,10.85,3.61,16.07,5.98,5.26,1.49,10.21,4.15,15.87,4.14,3.96,3.01,8.78,3.67,13.38,4.94,5.19,2.17,10.37,4.41,16.04,1.41,1.14-.6,2.25-.47,2.82.95-2.37,1.7-5.3,1.76-7.94,2.68-3.11,1.08-7.26,1.08-9.17,3.18-2.18,2.39,1,6.09,1.1,9.33.01.5.04.99.05,1.49-5.36-1.51-10.05,2.32-15.31,1.96-1.35-.09-.32,2.68-2.19,2.72.09,1.5,1.37,1.05,2.2,1.33,1.4.46,2.8.9,5.36,1.72-1.92.09-2.57.11-3.22.16-1.77.12-4.13-.82-4.19,2.38-.05,2.72,2.13,2.34,3.7,2.59,2.14.34,4.43.6,5.98,2.08,2.78,2.68,6,3.28,9.6,2.93,3.65,4.23,8.34,7.1,12.97,10.06,1.69,1.27,3.38,2.54,5.07,3.81,0,2.15-1.92,2.36-3.21,3.25-2.43,1.67-5.7,1.61-7.82,3.88-4.33.59-8.61,3.98-13.08.15-.48-.41-1.95.05-2.83.42-5.04,2.1-10.04,4.29-15.06,6.45-7.51-3.44-15.14-6.65-22.51-10.38-7.79-3.95-16.29-6.49-23.48-11.64,2.57-1.85,4.81-4.21,8.05-4.98.33-.2.65-.41.98-.61,0,0,.36-.25.36-.25.95-.25,2.03-.28,2.84-.78,8.61-5.27,17.19-10.57,25.71-15.98,1.04-.66,2.94-1.64,1.02-3.44.4-2.7-1.53-3.29-3.49-3.95-4.85-1.63-9.75-3.17-14.49-5.07-2.45-.98-4.84-.97-7.3-.81-1.33.09-1.68.88-.61,1.93-1.34,1.01-2.68,2.01-4.03,3.02-6.39,3.48-12.86,6.84-19.15,10.51-3.12,1.82-4.84,1.34-5.81-2.11-.36-1.27-.71-2.6-1.38-3.71-3.39-5.63-3.99-13.34-11.61-15.87,5.58-6.91,6.74-15.31,7.93-23.7,1.89-.98,2.6-2.93,3.7-4.56Z"/><path class="cls-5" d="M41,199.67c-.36-2.26-.72-4.52-1.07-6.78-1.81-5.29-1.69-11.11-4.18-17.13-1.76,3.79-2.99,6.67-4.42,9.46-1.57,3.07-3.87,6.21-7.52,5.35-3.54-.83-4.39-4.64-4.86-8.04-.11-.82-.05-1.66-.04-2.5.13-11.52,3.38-22.54,5.36-33.77,1.62-9.21,3.8-17.8,12.98-22.53.35-.21.69-.42,1.04-.64-.66,5.1-1.31,10.2-1.97,15.3-.42,3.23,1.71,4.41,4.24,5.21,2.55.8,3.64-.57,4.26-2.83.25-.92.8-1.82,1.42-2.56,4.89-5.88,4.73-8.46-.89-13.58-.94-.85-2.41-1.57-1.86-3.17.63-1.82,2.32-1.64,3.81-1.51,5.07.43,9.95-.27,14.64-2.28,1-.01,2.01.07,2.99-.06,11.55-1.53,15.97.86,20.87,11.44,3.1,6.69,4.26,13.96,6.02,21.04.32,1.29.59,2.59.93,3.87.34,1.27.52,2.84,2.2,2.92,1.68.09,2.07-1.52,2.53-2.7,1.88-4.83,2.65-9.93,3.58-15,.2-1.11-.12-2.38,1.05-3.17,2.11,2.88,5.17,3.3,8.41,3.21-.83,8.97-2.4,17.83-4.04,26.67-6.26-1.26-12.47-2.07-18.04,2.25-2.57-1.19-3.14-4.63-6.42-5.66.07,4.93-.5,9.62.89,14.24-1.46,3.99-.37,8.41-2.11,12.36-.27.3-.53.6-.8.91,0,0,.07-.04.07-.04-.98.05-2.01-.07-2.94.17-12.04,3.15-24.06,6.36-36.09,9.55Z"/><path class="cls-6" d="M80.76,189.09c1.74-3.94.65-8.37,2.11-12.36,1.85-2.86,3.69-5.72,5.54-8.58,5.57-4.32,11.78-3.51,18.04-2.25,5.99,3.2,6.63,8.68,6.2,14.61-1.11,1.62-1.81,3.57-3.7,4.56-5.75.37-8.5,3.2-8.4,9.19.08,4.72-1.74,8.99-5.05,12.51-3.05,4.04-1.32,8.65-1.35,12.97-.07,9.41-5.59,16.02-11.05,22.62-4.3,5.19-10.33,4.19-16.11,3.49l.02.04c-.33-1.06-1.22-1.01-2.07-1.06l.1.07c-.42-.29-.84-.59-1.26-.88l-.36-.12c-.65-.77-1.44-1.19-2.47-1.05l.06.02c-1.65-2.02-3.3-4.04-4.96-6.06-.5-1.3-.99-2.6-1.49-3.91-1.05-3.33-.23-6.57.51-9.81.73-1.1,1.45-2.2,2.17-3.3,1.69-2.16,3.72-4.13,5.01-6.51,2.64-4.89,5.94-8.89,10.68-12.03,3.83-2.53,6.84-6.22,7.09-11.31,0,0-.07.04-.07.04.59-.02.82-.35.8-.91Z"/><path class="cls-6" d="M195.05,207.96c-4.6-1.27-9.42-1.94-13.38-4.94,1.8-13.56-1.44-25.63-10.77-36.15-1.6,10.8-2.59,21.53-5.09,32.01-5.22-2.37-11.15-2.82-16.07-5.98.25-9.17.1-18.25-2.56-27.2-1.43-4.79-1.36-9.88-.89-14.88,2.11-.24,3.76,1.09,5.62,1.67,12.89,4.06,25.08,3.56,35.94-5.55,2.69,10.55,5.36,21.11,8.08,31.66,1.41,5.48,2.48,10.96.86,16.61-1.19,4.16-1.46,8.46-1.72,12.75Z"/><path class="cls-13" d="M37.24,123.73c-9.18,4.72-11.36,13.32-12.98,22.53-1.97,11.23-5.23,22.25-5.36,33.77,0,.83-.07,1.68.04,2.5.47,3.4,1.32,7.2,4.86,8.04,3.65.86,5.95-2.28,7.52-5.35,1.43-2.79,2.66-5.68,4.42-9.46,2.48,6.02,2.37,11.84,4.18,17.13-7.18.05-14,2.28-20.97,3.58-6.27,1.17-7.43.17-8.01-6.24-1.07-11.83-2.92-23.61-3.64-35.45-.35-5.71-2.5-11.37-.73-17.24,1.02-3.4,2.57-5.44,6.41-5.77,3.06-.26,6.59-.79,6.08-5.42,6.04-1.01,12.01-2.46,18.18-2.61Z"/><path class="cls-8" d="M146.94,130.94c-1.02.03-2.03.07-3.05.1-.62-3.22-1.08-6.42.01-9.65,1.29-3.82,3.25-7.69-1.19-11.03-.66-.49-.63-2.16-.6-3.27.3-9.37,2.17-18.7.76-28.12.97-1.73,2.35-3.04,4.08-4,1.83.81,3.26,2.24,4.9,3.28,4.79,3.03,7.78,8.67,13.95,9.66.12,8.22.23,16.44.35,24.65-.4.83-1.02,1.37-1.98,1.45-4.84-.24-6.43,2.48-6.27,6.84.1,2.67.36,5.48-2.72,6.82-2.71,1.18-5.5,2.18-8.26,3.26Z"/><path class="cls-14" d="M146.94,130.94c2.76-1.08,5.55-2.08,8.26-3.26,3.08-1.34,2.81-4.16,2.72-6.82-.16-4.36,1.44-7.08,6.27-6.84-1.68,2.85-2.04,5.36,1.8,6.74.07,3.49.51,7.02.14,10.46-.58,5.47,1.54,9.62,5.27,13.39,1.53-2.29,3-4.48,4.47-6.67,1.8-.2,3.03.76,4.43,1.76,2.53,1.81,4.7,4.2,7.76,5.25l-.22,1.98c-10.86,9.12-23.04,9.62-35.94,5.55-1.86-.59-3.51-1.92-5.62-1.67,1.09-6.6.6-13.24.66-19.87Z"/><path class="cls-1" d="M61.92,117.67c-4.68,2.01-9.57,2.71-14.64,2.28-1.48-.13-3.18-.31-3.81,1.51-.55,1.6.92,2.32,1.86,3.17,5.62,5.13,5.78,7.7.89,13.58-.62.74-1.17,1.64-1.42,2.56-.62,2.26-1.72,3.64-4.26,2.83-2.53-.8-4.66-1.98-4.24-5.21.66-5.1,1.31-10.2,1.97-15.3,1.86-3.33,3.77-6.65,4.84-10.35,6.33-.2,4.22-4.67,3.78-7.93-.42-3.1-1.54-6.09-2.29-9.15-.33-1.34-.35-2.81,1.16-3.41,1.71-.68,2.39.86,2.91,1.99,1.29,2.78,2.39,5.65,4.03,9.63.74-11.99,1.32-19.52,13.15-22.03.56,12.15.37,24.21-3.93,35.83Z"/><path class="cls-6" d="M65.86,81.84c-11.83,2.51-12.41,10.04-13.15,22.03-1.65-3.97-2.75-6.84-4.03-9.63-.52-1.13-1.21-2.67-2.91-1.99-1.51.6-1.49,2.07-1.16,3.41.75,3.06,1.87,6.05,2.29,9.15.44,3.26,2.55,7.73-3.78,7.93-3.85-6.84-6.67-14.03-7.81-21.85-1.84-12.61,6.14-21.93,18.93-21.8,3.29.03,6.61.58,9.85,1.22,5.64,1.12,6.98,4.58,3.76,9.33-.55.81-1.32,1.46-1.99,2.19Z"/><path class="cls-7" d="M189.32,72.89c5.03,3.76,7.14,9.25,8.85,14.97-1.93.77-1.65,2.08-1.6,3.93.16,5.17-.21,10.37-1.76,15.39-.82-.69-1.65-1.39-2.61-2.21-.17,1.78-.31,3.35-.46,4.92-1.28.05-2-.95-2.97-1.52-5.29-3.13-8.72-8.98-15.18-10.39-.38-7.72-2.31-15.39-.81-23.17,4.01,1.73,4.12-1.89,5.39-3.92,3.87-.14,7.5,1.01,11.16,2.01Z"/><path class="cls-6" d="M155.61,48.7c-3.17-4.07-4.15-9.05-4.59-13.86-.53-5.69,5.45-10.77,13.49-12.57,10.2-2.28,19.04,4.72,18.48,15.13-.48,8.82-3.65,17.11-6.16,25.5-1.07,0-2.37-.36-1.91-1.55,2.07-5.32-.85-10.25-.96-15.38-.14-6.27-.76-6.73-6.98-5.84-1.47.21-2.95.83-4.39.75-5.74-.34-7.71,2.49-6.98,7.82Z"/><path class="cls-1" d="M155.61,48.7c-.73-5.33,1.25-8.16,6.98-7.82,1.44.09,2.92-.53,4.39-.75,6.22-.89,6.84-.43,6.98,5.84.11,5.13,3.04,10.06.96,15.38-.46,1.19.84,1.54,1.91,1.55,0,1.31,0,2.63,0,3.94-1.63,1.34-3.27,2.68-4.9,4.02-2.21-.1-4.48-1.1-6.58.45l-4.41-5.25c-1.93-5.75-2.15-12.01-5.33-17.38Z"/><path class="cls-7" d="M142.88,78.97c1.41,9.42-.46,18.75-.76,28.12-.04,1.11-.06,2.77.6,3.27,4.43,3.34,2.48,7.21,1.19,11.03-1.09,3.23-.63,6.43-.01,9.65-4.6.85-8.53-2.89-9.96-8.94-1.25-5.28-1.06-10.44.03-15.68,1.82-8.75,4.23-17.32,7.26-25.72.25-.69,1.1-1.16,1.67-1.73Z"/><path class="cls-1" d="M110.49,139.23c-3.25.09-6.3-.32-8.41-3.21.8-10.19,2.11-20.23,8.94-28.98,1.56,2.11.27,3.96-.26,5.28-1.56,3.95-1.14,6.83,2.24,9.76,3.48,3.02,3.62,7.36.49,10.61-1.89,1.96-2.63,4.07-3,6.54Z"/><path class="cls-7" d="M165.82,87.92c-6.17-1-9.16-6.63-13.95-9.66-1.64-1.04-3.07-2.47-4.9-3.28,3.22-2.45,6.69-4.35,10.72-5.09.15,2.81,2,4.77,3.5,6.9,2.13,3.02,3.47,1.72,4.61-.8,0,3.98.01,7.96.02,11.95Z"/><path class="cls-8" d="M165.8,75.97c-1.14,2.53-2.48,3.83-4.61.8-1.5-2.13-3.35-4.08-3.5-6.9.42-1.84,1.6-3.02,3.25-3.8,1.47,1.75,2.94,3.5,4.41,5.25-.6,1.62-.46,3.17.45,4.64Z"/><path class="cls-8" d="M171.93,70.88c1.64-1.34,3.27-2.68,4.9-4.02,1.43,1.02,1.02,2.64,1.32,4.03-1.26,2.04-1.38,5.65-5.38,3.92-.28-1.31-.56-2.62-.84-3.93Z"/><path class="cls-12" d="M289.86,13.04c29.49,0,58.97.09,88.45-.1,4.32-.03,5.72.98,5.63,5.5-.25,13.6-.06,13.95-13.45,13.4-19.93-.81-39.86-1.38-59.8-2.06-18.43-.63-36.86-1.39-55.3-1.96-18.77-.58-37.52-1.73-56.3-1.85-2.98-.02-4.32-1.14-4.14-4.14.1-1.66.08-3.33,0-5-.12-2.79,1.21-3.86,3.93-3.82,6,.09,11.99.02,17.99.02,24.32,0,48.64,0,72.96,0ZM375.68,17.04c-2.66.51-3.94,2.14-3.9,4.84.04,3.16,1.26,5.75,4.67,5.87,3.17.11,4.16-2.71,4.04-5.2-.13-2.71-1.59-5.02-4.8-5.5Z"/><path class="cls-15" d="M343.96,120.67c-10.31-1.56-20.6-3.28-30.94-4.59-3.7-.47-4.91-2.49-4.93-5.6-.07-20.28-.05-40.56-.06-60.83,0-4.07,2.53-4.86,5.97-4.8,13.28.24,26.57,0,39.82,1.21,0,3.55,0,7.09,0,10.64-8.61-.21-17.23-.45-25.84-.59-2.03-.03-4.98-.63-4.88,2.55.09,2.79,2.9,2.15,4.76,2.18,9.3.14,18.61.18,27.91.26,0,2.3,0,4.61,0,6.91-5.66-.02-11.32-.09-16.97-.04-1.5.01-3.77-.71-3.88,1.84-.13,2.97,2.4,2.06,4.04,2.22,3.29.33,6.59.56,9.89.83.28,2.06-.46,3.94-1.08,5.83-10.29-.29-20.58-.62-30.87-.84-1.67-.04-4.3-.86-4.47,1.73-.19,3.03,2.63,2.3,4.47,2.38,11.61.5,23.23.93,34.84,1.39l.06,5.99c-9.27-.45-18.55-.92-27.83-1.35-1.64-.08-3.66-.33-3.69,2.1-.02,2.09,1.83,1.89,3.3,2.1,9.67,1.35,19.39,1.83,29.14,2,.02,5.31.04,10.62.07,15.93-1.79-.06-3.57-.11-5.36-.19-2.79-.12-3.85,1.26-3.46,3.93,0,2.27-.01,4.54-.02,6.81ZM321.39,97.91c-2.31,0-4.63-.04-6.94.02-1.07.03-1.94.59-2.08,1.72-.14,1.2.74,1.94,1.73,2.04,5.22.49,10.39,1.8,15.7,1.2,1.44-.16,2.69-.58,2.8-2.2.11-1.59-1.26-1.6-2.37-1.93-2.91-.88-5.88-.77-8.85-.85ZM322.56,67.97s0-.05,0-.08c-2.64,0-5.28-.05-7.92.02-1.25.03-2.32.59-2.25,2.05.05,1.16.99,1.76,2.02,1.78,5.28.12,10.56.18,15.84.17,1.24,0,2.34-.63,2.23-2.08-.1-1.42-1.25-1.84-2.49-1.86-2.47-.04-4.95-.01-7.43-.01ZM315.9,55.13c-1.53.33-3.87.21-3.65,2.7.22,2.46,2.53,2.05,4.27,2.06,1.45,0,3.19.18,3.25-1.96.07-2.5-1.77-2.76-3.87-2.8Z"/><path class="cls-14" d="M353.82,56.69c0-3.55,0-7.09,0-10.64,5.98.05,11.96.2,17.93.12,4.47-.06,6.23,2.04,6.21,6.39-.07,22.43-.11,44.85.04,67.28.03,4.59-1.84,5.89-6.06,5.2-9.32-1.52-18.66-2.92-27.99-4.37,0-2.27.01-4.54.02-6.81,5.87.68,11.74,1.39,17.61,2.02,1.48.16,3.34.25,3.71-1.58.41-2.03-1.52-1.95-2.88-2.52-3.11-1.31-6.62,0-9.62-1.66-.02-5.31-.04-10.62-.06-15.93,1.61-.66,4.58,1.01,4.73-1.87.17-3.2-3-2-4.79-2.57-.3-.1-.58-.27-.87-.4-.02-2-.04-3.99-.06-5.99,3.29.17,6.57.35,9.86.5,1.56.07,3.11,0,3.28-2.07.18-2.35-1.4-2.64-3.22-2.68-4.63-.11-9.26-.26-13.89-.4.62-1.9,1.36-3.77,1.08-5.83,1.09-1.09,2.5-.99,3.73-.65,5.05,1.38,10.19.51,15.28.73,1.51.06,3.72.61,3.75-1.93.04-2.54-2.16-1.88-3.69-2.05-4.04-.47-8.22.91-12.15-.94,0-2.3,0-4.61,0-6.92,4.16,0,8.32.02,12.48-.03,1.43-.02,3.35.31,3.32-1.93-.02-2.01-1.73-2.14-3.29-2.17-4.82-.1-9.65-.18-14.47-.27Z"/><path class="cls-3" d="M294.7,139.04c0,3.99.03,7.98-.01,11.97-.04,3.72-1.68,5.62-5.64,4.77-16.04-3.41-32.07-6.84-48.13-10.17-3.21-.67-4.31-2.46-4.26-5.6.12-7.64-.04-15.29.07-22.93.08-5.34,1.51-6.38,6.73-5.43,15.01,2.74,29.99,5.65,45.04,8.1,4.66.76,6.24,3.09,6.21,7.33-.03,3.99,0,7.98,0,11.97ZM251.7,132.31c-.02,6.82,2.95,11.56,8.48,13.83,3.78,1.56,6.82.43,9.39-2.35,4.26-4.59,4.09-9.9,2-15.3-2.2-5.66-7.68-8.74-13-7.58-3.98.87-6.85,5.64-6.87,11.39Z"/><path class="cls-6" d="M240.79,180.14c-5.27-4.55-4.18-10.2-2.75-15.9,2.06-4.2,5.65-6.81,9.51-9.14,7.51-.22,15.25-1.47,21.29,4.81,1.85,3.8,1.93,8.03,2.94,12.03.01,1.66.03,3.32.04,4.98-.04,1.33-.07,2.65-.11,3.98-.59,1.29-.84,2.63-.52,4.04-.34,2.28-.69,4.56-1.03,6.84-.47,2.07-.94,4.14-1.41,6.2-3.88,4.89-11.06,4.65-14.54-.42-2.75-4.01-3.78-8.4-3.41-13.21.09-1.16-.19-2.58-1.66-2.51-1.18.05-1.12,1.4-1.28,2.38-.39,2.25.7,4.78-1.12,7.05-2.85-3.51-.73-9.3-5.95-11.14Z"/><path class="cls-7" d="M271.79,171.94c-1.02-4-1.09-8.23-2.94-12.03,17.23,3.52,34.47,7.01,51.69,10.58,6.78,1.41,13.53,3,20.29,4.5-.04,4.66-1.58,9.22-.99,13.93-2.87.21-5.49-.94-8.19-1.59-9.24-2.24-18.26-5.43-27.79-6.41-1.04-1.45-2.58-.85-3.94-.96-9-3.98-18.72-5.44-28.12-8.02Z"/><path class="cls-8" d="M189.8,142.93c-.58.67-1.16,1.35-1.74,2.02-3.05-1.05-5.22-3.44-7.75-5.25-1.4-1-2.63-1.96-4.43-1.76-.37-6.75-.74-13.51-1.11-20.26.48-.45.89-1.15,1.45-1.3,3.67-.98,4.72-4.2,3.97-6.87-1.01-3.58-4.24-.24-6.41-.83-.06-3.57-.12-7.14-.18-10.71,6.46,1.41,9.89,7.26,15.18,10.39.97.57,1.69,1.57,2.97,1.52-.72,8.54-1.5,17.08-2.12,25.62-.18,2.46.1,4.95.17,7.42Z"/><path class="cls-14" d="M277.95,106.97c-.04-11.65-.08-23.3-.13-34.95.14-2.68.28-5.37.43-8.05,2.45,0,4.9.01,7.35.02.13,2.37.27,4.73.4,7.1-.07,12.28-.14,24.56-.22,36.83-2.66.06-5.37.52-7.84-.95Z"/><path class="cls-8" d="M194.81,107.18c1.55-5.02,1.92-10.22,1.76-15.39-.06-1.85-.33-3.16,1.6-3.93,2.84,2.28,1.76,6.14,3.65,8.93,1.93,2.84,3.21,3.16,5.27.3,2.06-2.86,2.96-6.24,4.52-9.31,2.96,1.43,2.56,4.04,1.98,6.43-.56,2.32-.13,4.15,1.45,5.82-.84,4.28-2.9,8.04-4.91,11.83-.49.69-.97,1.37-1.46,2.06-7.27,3.2-10.76-1.36-13.87-6.73Z"/><path class="cls-4" d="M256.82,90.99c-.2-2.26-.4-4.53-.6-6.79.1-.46.21-.93.31-1.39.03-8.83.2-17.65.02-26.47-.07-3.27.89-4.33,4.21-4.29,3.33.05,4.17,1.24,4.11,4.43-.22,11.48-.17,22.96-.22,34.45-2.61.02-5.22.04-7.83.07Z"/><path class="cls-2" d="M247.56,155.1c-3.86,2.32-7.45,4.94-9.51,9.14-5.07-3.23-11-3.83-16.62-5.33-7.44-1.99-8.47-3.16-8.53-10.81,11.56,2.34,23.11,4.67,34.67,7.01Z"/><path class="cls-14" d="M215.05,100.02c-1.58-1.67-2.01-3.5-1.45-5.82.58-2.39.97-5.01-1.98-6.43,1.28-3.75,2.55-7.5,3.83-11.24,1.08.73,2.57,1.22,3.15,2.24,1.55,2.7,2.75,1.15,4.09-.02.03,6.4.06,12.8.09,19.2-2.23.6-4.85-1.23-6.81,1.09-.31.33-.61.66-.92.98Z"/><path class="cls-4" d="M285.6,63.98c-2.45,0-4.9-.01-7.36-.02-.12-5.66-.24-11.32-.36-16.98-.91-4.56,2.01-4.82,5.32-4.92,4.25-.13,1.82,3.27,2.72,4.89-.11,5.67-.22,11.35-.33,17.02Z"/><path class="cls-12" d="M237.85,69.9c1.42-4.7,2.74-9.43,4.29-14.08.54-1.61.95-3.9,3.35-3.65,2.05.22,2.04,2.28,2.41,3.83.66,2.71,1.41,5.4,1.91,8.14,1.22,6.76,1.16,6.77-5.65,6.92-1.82-1.95-4.26-.51-6.31-1.16Z"/><path class="cls-2" d="M332.84,131.94c8.63,1.55,17.24,3.15,25.88,4.62,2.01.34,3.44.76,3.15,3.31-.37,3.33-2.49,1.33-3.64,1.13-8.47-1.45-16.91-3.1-25.36-4.68,0-1.46-.02-2.92-.03-4.38Z"/><path class="cls-12" d="M215.97,99.04c1.96-2.31,4.58-.49,6.81-1.09,4.18,1.27,8.43,2.12,12.84,1.92,2.48,1.78,5.63.88,8.26,2.07,4.27-.05,8.41,1.74,12.74.95,2.46,1.63,5.39,1.4,8.1,2.05,4.41.68,8.83,1.35,13.24,2.03,2.47,1.47,5.18,1.01,7.84.95.75,1.49,2.96.39,4.13,3.1-25.08-4.06-49.51-8.02-73.95-11.98Z"/><path class="cls-2" d="M332.84,156.91c8.63,1.56,17.26,3.17,25.91,4.64,2.01.34,3.43.7,3.14,3.29-.38,3.33-2.47,1.35-3.63,1.15-8.48-1.46-16.92-3.1-25.38-4.68-.01-1.47-.02-2.94-.03-4.41Z"/><path class="cls-2" d="M332.91,144.43c8.5,1.51,16.99,3.07,25.5,4.49,2.25.37,4,.95,3.39,3.67-.62,2.77-2.7,1.17-3.99.95-8.34-1.44-16.65-3.07-24.97-4.63.02-1.49.04-2.99.07-4.48Z"/><path class="cls-14" d="M243.87,101.94c-2.63-1.18-5.78-.29-8.26-2.07-.04-4.91-.08-9.82-.11-14.72.16-.39.32-.79.48-1.18,2.62.02,5.24.03,7.86.05,0,5.97.02,11.95.03,17.92Z"/><path class="cls-12" d="M277.88,46.99c.12,5.66.24,11.32.36,16.98-.14,2.68-.28,5.37-.42,8.05-9.35-.12-9.41-.14-6.4-9.04,1.84-5.45,3.06-11.17,6.46-15.99Z"/><path class="cls-1" d="M222.69,78.75c-1.35,1.17-2.54,2.72-4.09.02-.58-1.01-2.07-1.5-3.15-2.24-.18-.77-.37-1.53-.55-2.3-.02-1.51-.04-3.03-.07-4.54.24-1.21.49-2.43.73-3.64l5.47-2.04c-.07,2.15,1.34,2.83,3.11,3.15,2.32,4.22,1.22,8-1.45,11.6Z"/><path class="cls-4" d="M243.84,84.02c-2.62-.02-5.24-.03-7.86-.05-.12-1.69-.25-3.37-.37-5.06.01-2.16.08-4.32.02-6.48-.05-1.61.49-2.55,2.22-2.52,2.06.65,4.5-.78,6.31,1.16-.11,4.32-.21,8.63-.32,12.95Z"/><path class="cls-12" d="M215.56,66.04c-.24,1.21-.49,2.43-.73,3.64-1.31.91-2.62,1.81-3.93,2.71-.63.26-1.26.52-1.9.79,1.08-7.6,3.94-14.64,6.94-21.62.93-2.17,1.19-1.64,3.46.21,2.46,2.01,3.21,4.38,3.49,7.21q-8.32-.07-7.32,7.06Z"/><path class="cls-14" d="M264.71,104.93c-2.71-.65-5.64-.42-8.1-2.05.07-3.97.14-7.93.21-11.9,2.61-.02,5.22-.04,7.83-.07.02,4.67.04,9.34.05,14.01Z"/><path class="cls-4" d="M211.38,121.01c6.08,1.06,11.96,2.1,17.84,3.09,2.04.34,2.15,1.76,2.01,3.35-.13,1.4-1.08,1.44-2.15,1.24-6.02-1.13-12.04-2.26-18.06-3.37-1.48-.27-2.35-.89-2.25-2.62.13-2.11,1.51-1.75,2.62-1.69Z"/><path class="cls-14" d="M211.95,129.98c5.57.97,11.57,2.01,17.57,3.06,1.75.3,1.94,1.58,1.79,2.98-.15,1.53-1.13,1.78-2.48,1.52-5.98-1.17-11.96-2.35-17.96-3.43-1.71-.31-2.18-1.22-1.99-2.75.22-1.69,1.48-1.44,3.06-1.38Z"/><path class="cls-3" d="M208.68,113.91c.49-.69.97-1.37,1.46-2.06,6.08.65,11.82,3.15,18.02,3.19,2.19.01,3.58,1.02,3.12,3.41-.47,2.42-2.32,1.3-3.6,1.09-5.25-.85-10.48-1.82-15.72-2.74-1.68-.3-3.4-.55-3.27-2.89Z"/><path class="cls-3" d="M329.01,147.93c-5.73-1.02-11.44-2.07-17.18-3.04-1.93-.32-3.2-1.14-2.81-3.26.49-2.64,2.29-1.09,3.53-.88,5.51.94,11.01,1.98,16.52,2.98.76,1.41.93,2.81-.05,4.2Z"/><path class="cls-3" d="M328.92,160.37c-5.22-.91-10.47-1.7-15.65-2.79-1.67-.35-4.64.15-4.19-2.95.5-3.44,3.18-1.45,4.74-1.23,5.08.71,10.11,1.78,15.16,2.71-.02,1.42-.04,2.84-.05,4.26Z"/><path class="cls-3" d="M328.92,135.45c-5.69-1.04-11.38-2.1-17.07-3.12-1.8-.32-3.39-.87-2.76-3.13.62-2.21,2.45-1.18,3.74-.97,5.39.89,10.76,1.92,16.14,2.9-.02,1.44-.04,2.88-.06,4.33Z"/><path class="cls-12" d="M285.6,63.98c.11-5.67.22-11.35.33-17.02,4.26,6.83,4.65,14.34,3.85,22.06-.26,2.47-2.28,1.81-3.78,2.07-.13-2.37-.27-4.73-.4-7.1Z"/><path class="cls-12" d="M202.45,85.25v-48.19c.19,0,.38,0,.57-.01v48.02c-.19.06-.38.12-.57.18Z"/><path class="cls-4" d="M215.56,66.04q-1-7.12,7.32-7.06s-.05.31-.06.31c-.03.22.02.43.15.61.04.68.08,1.35.12,2.02-.69.69-1.38,1.38-2.06,2.06l-5.47,2.04Z"/><path class="cls-14" d="M221.03,64c.69-.69,1.38-1.38,2.06-2.06,2.71-.24,4.44-3.57,7.79-2.4-.28,4.34-4,5.56-6.75,7.62-1.77-.32-3.18-1-3.11-3.15Z"/><path class="cls-14" d="M328.92,135.45c.02-1.44.04-2.88.06-4.33.31-.89.42-1.96,1.76-1.91,1.82.06,1.82,1.5,2.11,2.74,0,1.46.02,2.92.03,4.38-2.02,2.86-3.14,1.68-3.95-.88Z"/><path class="cls-14" d="M328.92,160.37c.02-1.42.04-2.84.05-4.26.3-.9.39-1.97,1.75-1.93,1.83.06,1.86,1.48,2.12,2.73.01,1.47.02,2.94.03,4.41-2.08,2.86-3.18,1.66-3.95-.95Z"/><path class="cls-4" d="M202.4,123.91c-2.93.13-4.11-.78-3.88-3.14.16-1.7,1.2-1.66,2.43-1.35,1.8.45,4.11.22,3.69,3.28-.31,2.28-1.87,1.11-2.24,1.21Z"/><path class="cls-11" d="M204.65,129.8c.18,2.7-.69,3.34-2.35,3.18-1.82-.18-3.82-.08-3.99-2.66-.08-1.27.21-2.4,1.84-2.26,1.93.16,3.96.28,4.5,1.75Z"/><path class="cls-14" d="M329.01,147.93c.98-1.39.81-2.79.05-4.2.2-1.24.79-1.96,2.19-1.75,1.47.22,1.38,1.44,1.65,2.44-.02,1.49-.05,2.99-.07,4.48-2.16,3.14-3.09,1.47-3.83-.98Z"/><path class="cls-3" d="M209,73.19c.63-.26,1.26-.52,1.9-.79.14,1.32.9,2.23,1.95,2.95-1.12,1.22-2.31,2.8-4.1,1.39-1.27-1-.63-2.41.25-3.54Z"/><path class="cls-7" d="M212.84,75.35c-1.05-.72-1.81-1.63-1.95-2.95,1.31-.9,2.62-1.81,3.93-2.71.02,1.51.04,3.03.07,4.54-.68.37-1.36.74-2.05,1.12Z"/><path class="cls-12" d="M235.61,78.91c.12,1.69.25,3.37.37,5.06-.16.39-.32.79-.48,1.18-3.36-2.14-.22-4.16.11-6.24Z"/><path class="cls-12" d="M267.85,74.95c-.1.76-.2,1.51-.3,2.27-.14-.08-.35-.13-.39-.25-.3-.86.02-1.5.74-1.99,0,0-.05-.04-.05-.04Z"/><path class="cls-12" d="M267.9,74.99c.1-.42.19-.84.29-1.25.16.11.32.22.49.32-.27.3-.54.59-.82.89,0,0,.05.04.05.04Z"/><path class="cls-12" d="M256.53,82.8c-.1.46-.2.93-.31,1.39-.27-.28-.55-.56-.82-.84.38-.18.75-.37,1.13-.55Z"/><path class="cls-14" d="M222.97,59.91c-.12-.19-.17-.39-.15-.61.13.13.26.27.4.4-.08.07-.17.14-.25.21Z"/><path class="cls-2" d="M257.94,362.8c-.02,2.35-.04,4.69-.06,7.04-3.5.87-5.72,3.81-8.78,5.45-8.37,4.47-17.59,5.78-26.69,7.49-8.04,1.52-16.22,1.26-24.34,1.01-13.13-.41-26.09-2.22-38.33-7.22-5.35-2.18-10.55-4.99-10.96-12.1-.16-2.76-2.39-3.89-5.07-3.53-1.8.24-3.82.39-5.27,1.32-4.44,2.84-9.48,2.11-14.19,2.44-13.34.93-26.74,1.33-39.95-1.6-1.96-.44-3.11,0-3.39,2.32-.33,2.79-1.14,5.49-1,8.37.12,2.48.23,5.07-.38,7.43-.41,1.58.32,4.79-2.78,4.38-2.98-.39-1.7-3.2-1.71-4.93-.03-4.13-.29-8.24.74-12.39.94-3.8.45-7.01-4.9-7.74-4.77-.65-9-3.41-12.88-6.31-5.72-4.27-5.42-10.7.63-14.71,5.86-3.88,12.06-6.99,19.21-7.68.61,2.46-1.04,4.63-.87,7.03-1.39.53-2.84.92-4.15,1.6-6.39,3.36-6.69,8.38-.88,12.77,3.6,2.71,7.28,4.52,11.99,5.31,13.17,2.23,26.26,3.35,39.52,1.38,6.93-1.03,6.9-1.05,5.74-7.78-.24-1.38-1.01-3.41.91-3.87,2.39-.57,1.7,1.93,2.09,3.11,1.53,4.75,3.25,5.23,6.91,1.7.46-.44.67-1.13,1-1.7,2.65.13,5.31.46,7.95.31,2.36-.13,3.55-1.57,1.64-3.6-2.8-2.97-5.3-6.47-9.69-7.41-.33-.05-.66-.1-.99-.14.55-3.2-2.38-5.56-2.09-8.69,3.81.39,7.48,1.41,10.97,2.89,12.39,5.25,14.8,7.02,14.18,18.76-3.49,1.29-7.54,2.01-7.17,7.17-2.17,3.99,1.17,5.16,3.59,5.9,4.7,1.45,9.61,2.24,14.43,3.3.05,1.26.52,2.32,1.77,2.73,5.49,1.81,10.97,3.86,16.78,4.18,9.77.54,9.76.38,11.51-9.2.33-1.8.77-3.92,3.25-3.55,2.42.37,1.71,2.57,1.56,4.06-1.1,10.65-1.14,10.65,9.49,8.86.65-.11,1.34,0,1.98-.14,6.77-1.45,13.75-2.38,18.92-7.76,2.38-2.48,2.25-4.78.08-7.44-1.85-2.26-4.85-2.86-6.6-5.14-.04-.46-.08-.92-.12-1.38.98-1.29,2.3-2.4,2.25-4.23,7.09,1.82,13.98,4.12,19.96,8.52,1.26.93,2.49,1.62,4.09,1.44l.11,1.97Z"/><path class="cls-11" d="M31.52,295.96c-1.68-7.95-3.05-15.95-3.86-24.05,11.98-1.01,23.95-2.13,35.94-2.95,3.18-.22,4.38-1.32,4.39-4.49.01-4.44-1.67-8.37-3.04-12.42.68-1.71,1.36-3.42,2.05-5.13,3.02,1.94,4.43,4.91,4.88,8.28,1.36,10.32,3.23,20.55,5.57,30.69.93,5.7,1.47,11.49,3.51,16.96.27,3.32,1.5,6.35,2.53,9.48,1.42,4.35,3.74,5.11,7.9,3.69,6.62-2.26,12.36-6.15,18.58-9.15,0,2,0,4.01,0,6.01-.09.34-.19.67-.28,1.01-.79.05-1.44.32-1.8,1.08-2.11.02-3.51,1.6-5.26,2.4-5.26,2.4-9.93,6.22-16,6.71-4.9-1.19-7.43-4.65-8.59-9.25-1.44-5.74-2.7-11.52-4.07-17.28-.62-2.61-1.7-4.47-5-4.22-12.47.96-24.94,1.76-37.42,2.62Z"/><path class="cls-14" d="M64.95,252.05c1.38,4.05,3.06,7.98,3.04,12.42,0,3.17-1.21,4.28-4.39,4.49-11.99.83-23.96,1.94-35.94,2.95-2.7-12.91-5.02-25.88-6.67-38.97,1.51.66,3.01,1.34,4.53,1.99,13.17,5.64,26.56,10.78,39.42,17.12Z"/><path class="cls-13" d="M31.52,295.96c12.47-.86,24.95-1.65,37.42-2.62,3.3-.26,4.38,1.61,5,4.22,1.37,5.76,2.63,11.54,4.07,17.28,1.16,4.6,3.69,8.06,8.59,9.25-1.25.53-2.5,1.07-3.75,1.6-1.66.17-3.33.34-4.99.5-14.92-1.68-28.37-7.21-40.78-15.5-1.65-2.32-3.3-4.64-4.95-6.96-.2-2.59-.41-5.18-.61-7.77Z"/><path class="cls-13" d="M64.95,252.05c-12.87-6.34-26.25-11.48-39.42-17.12-1.51-.65-3.02-1.32-4.53-1.99-.11-2.5.76-4.25,3.52-4.52,1.48.48,2.95.96,4.43,1.44,0,0,.03.03.03.03,8.42,4.24,17.09,7.87,25.98,11,1.93.92,3.71,2.33,6.06,1.98,0,0-.06-.02-.06-.02.51,1.09,1.5,1.04,2.47,1.05,0,0,.36.12.36.12.42.29.84.59,1.25.88,0,0-.1-.07-.1-.07.45.82,1.17,1.1,2.06,1.06,0,0-.02-.04-.02-.04,0,.36,0,.71,0,1.07-.68,1.71-1.36,3.42-2.05,5.13Z"/><path class="cls-4" d="M32.13,303.73c1.65,2.32,3.3,4.64,4.95,6.96-1.97,5.47-1.38,11.27-2.02,16.9-.39,3.42.06,6.93-1.07,10.28-1.34,0-2.68,0-4.02,0-.62-10.15,1.45-20.21,1.12-30.36-.04-1.25.67-2.52,1.03-3.78Z"/><path class="cls-4" d="M77.86,326.19c1.66-.17,3.33-.34,4.99-.5.04,1.72.09,3.45.13,5.17-.32,2.32-.63,4.63-.95,6.95-.4,1.51.84,3.81-.99,4.46-2.21.79-2.82-1.58-3.69-3.09-.08-.13-.25-.21-.38-.32-.16-2.4,1.48-4.58.87-7.03,0-1.88,0-3.76,0-5.64Z"/><path class="cls-2" d="M33.96,349.82c.02,3.62-1.38,7.09-1.06,10.78.18,2.06-1.5,3.01-3.23,2.96-2.27-.07-1.71-2.12-1.63-3.44.2-3.44.63-6.86.96-10.28,1.65,0,3.3,0,4.95-.01Z"/><path class="cls-7" d="M33.96,349.82c-1.65,0-3.3,0-4.95.01.47-3.98-1.04-8.12.97-11.97,1.34,0,2.68,0,4.02,0-.01,3.99-.02,7.97-.04,11.96Z"/><path class="cls-2" d="M80.03,189.95c-.25,5.09-3.26,8.78-7.09,11.31-4.74,3.14-8.03,7.14-10.68,12.03-1.29,2.38-3.31,4.35-5.01,6.51-1.62-3.09-4.9-3.6-7.67-4.82-7.93-3.48-15.91-6.84-23.52-11,4.98-1.44,9.96-2.87,14.93-4.31,12.03-3.19,24.05-6.4,36.09-9.55.93-.24,1.96-.12,2.94-.17Z"/><path class="cls-4" d="M26.07,203.98c7.61,4.16,15.59,7.52,23.52,11,2.77,1.21,6.05,1.72,7.67,4.82-.72,1.1-1.45,2.2-2.17,3.3-9.45-3.47-18.35-8.16-27.49-12.33-3.35-1.53-3.29-4.01-1.53-6.79Z"/><path class="cls-13" d="M54.57,232.91c.5,1.3.99,2.6,1.49,3.91-.11.13-.22.26-.32.4-2.06-.64-4.09-1.49-6.2-1.89-6.98-1.35-13.24-5.4-20.56-5.42,0,0-.03-.03-.03-.03-.33-3.89,1.59-4.67,4.87-3.5,4.98,1.77,9.94,3.61,14.95,5.31,1.87.63,3.73,1.47,5.8,1.23Z"/><path class="cls-16" d="M303.85,180.92c9.53.98,18.55,4.17,27.79,6.41,2.7.66,5.32,1.8,8.19,1.59,3.83,1.71,7.84,2.71,12.02,3.07,8.73,8.87,12.81,19.77,13.92,31.96l.08-.08c-3.73-3.73-6.79-8.13-11.44-10.93-5.27-3.18-10.72-4.22-16.62-2.05-2.18-1.16-4.35-2.36-6.97-1.98-1.05-5.53-4.44-8.5-9.99-9.1-3.99-2.42-8.7-2.46-12.98-3.91-2.31-1.77-4.14-3.77-4.02-6.99.1-2.66.02-5.33.01-7.99Z"/><path class="cls-16" d="M360.44,195.01c9.03,1.77,17.98,3.89,26.64,7.06-5.97,12.36-7.85,25.85-10.7,39.15-2.37-16.49-4.77-32.86-15.94-46.21Z"/><path class="cls-16" d="M365.78,223.95l.52.46c-.11-.02-.27-.01-.31-.08-.08-.13-.09-.3-.13-.46,0,0-.08.08-.08.08Z"/><path class="cls-6" d="M262.01,297.45c-1,5.81-2,11.63-3,17.44-.67,1.74-1.35,3.47-2.02,5.21-5.06.47-9.91-.51-14.69-2.11-6.13-2.05-12.29-4-18.43-5.99-2.81-.61-5.04-2.8-8.01-2.95-1.13-.48-2.26-.95-3.4-1.43-5.02-3.97-6.72.93-7.95,3.7-5.58,12.53-10.45,25.37-14.41,38.53-.52,1.29-1.04,2.59-1.56,3.88-.25-.14-.46-.09-.62.15-4.02-.43-8.38.87-11.85-2.35-.97-1.98-1.37-4.02-1.06-6.25,2.8-20.21,9.45-39.32,16.82-58.18,2.51-6.41,5.41-7.42,12.26-6.72,9.8,1,19.27,3.5,28.76,5.96,4.53,7.58,18.75,13,29.16,11.12Z"/><path class="cls-8" d="M212.85,254.93c-4.63-2.96-9.32-5.83-12.97-10.06-.45-4.02,2.49-6.64,4.07-9.82,4.12,1.11,7.39,4.3,11.76,4.79.38.06.76.11,1.13.17.39,2.48,2.7,2.7,4.36,3.51,10.21,5.03,13.66,2.85,13.72-8.54,4.15-.03,8.3-.05,12.45-.08,1.87-.01,3.84-.08,4.41,2.25.71,2.87,2.88,2.75,5.09,2.75,9.3,0,18.6.04,27.9.07-.07,3.37-.15,6.75-.22,10.12-1.62.79-3.17,1.84-4.88,2.34-7.61,2.2-11.56,7.12-11.91,15.06-.09,2.12-.65,4.22-.99,6.33-6.14.14-12.32-.11-18.4.56-4.51.5-8.87.8-13.26-.4.29-3.05.58-6.11.88-9.16,3.38-1.34,5.83-3.82,7.72-6.77,2.24-3.49,1.32-5.09-2.82-5.12-7.79-.07-15.58,0-23.37-.03-1.88,0-3.7,0-4.66,2.03Z"/><path class="cls-14" d="M235.1,273.97c4.39,1.2,8.75.9,13.26.4,6.08-.67,12.27-.41,18.4-.56-1.62,7.87-2.43,15.9-4.75,23.63-10.41,1.89-24.63-3.54-29.16-11.12.75-4.12,1.5-8.24,2.25-12.36Z"/><path class="cls-16" d="M257.83,360.83c-1.6.18-2.82-.51-4.09-1.44-5.98-4.4-12.87-6.7-19.96-8.52-1.43-3.06-1.1-6.91-4.12-9.27.35-5-1.24-9.81-1.53-14.75,2.24.2,3.94,1.63,5.82,2.62,6.11,3.23,11.94,7.1,18.96,8.23,1.01.36,2.01.72,3.02,1.09,1.77,7.25.09,14.79,1.89,22.04Z"/><path class="cls-11" d="M252.93,337.71c-7.02-1.13-12.85-5-18.96-8.23-1.88-1-3.58-2.42-5.82-2.62-.44-.56-.88-1.12-1.32-1.68.05-2.13.11-4.26.16-6.39,1.71.19,2.99,1.25,4.44,2.04,5.18,2.83,10.25,5.85,15.76,8.09,4.34,1.76,6.86.48,8.58-3.6.72-1.7,1.34-3.36,1.24-5.22.67-1.74,1.35-3.47,2.02-5.21,5.27,1.25,3.68,6.22,3.38,8.78-.7,5.87-3.02,11.59-9.46,14.04Z"/><path class="cls-7" d="M284.92,238.92c-.05.35-.11.7-.16,1.05-9.3-.02-18.6-.06-27.9-.07-2.21,0-4.38.12-5.09-2.75-.58-2.33-2.55-2.26-4.41-2.25-4.15.03-8.3.06-12.45.08,0,0-.02-.14-.02-.14,2.28-3.89-.11-7.37-.97-10.98.99,0,1.98,0,2.97,0,4.34,2.56,10.51,2.76,12.91.14,3.39-3.71,6.61-2.94,10.13-3.05,6.48-.2,12.97.12,19.45-.13,3.81-.15,6.16.5,5.53,5.03-.2,1.45-.2,3.32,2.34,2.3,3.23-1.29,6.52-2.46,9.69-3.88,2.45-1.09,2.55-2.71.02-3.74-2.9-1.18-5.8-2.56-9.02-2.63-2.01-.04-3.32-.7-3.03-2.88.48-3.63-.97-6.82-2.07-10.1,12.93,1.72,24.32,10.62,38.14,8.17,4,3.46,6.11-.63,8.85-2.22.09,1.73,1.14,2.43,2.66,3.12,3.49,1.58,7.24,3.45,7.2,7.93-.04,4.71-4.11,6.65-7.66,8.23-8.21,3.67-17,5.18-25.92,5.65-5.78.31-11.59.09-17.39.04-2.16-.02-4.13.03-3.78,3.04Z"/><path class="cls-4" d="M329.82,210.9c-2.74,1.59-4.84,5.68-8.85,2.22-13.82,2.45-25.21-6.46-38.14-8.17-3.38-3.2-7.17-2.06-10.95-1.04-.67-1-1.35-2.01-2.02-3.01-.37-.97-.73-1.93-1.1-2.9.47-2.07.94-4.14,1.41-6.21,16.3,4.78,32.59,9.61,48.93,14.28,2.32.66,5.71,3.58,6.93.82,1.18-2.67-3.66-2.91-5.26-4.87.03-.73.05-1.46.08-2.2,5.55.59,8.94,3.56,9.99,9.1-.8.43-.96,1.18-1.01,1.99Z"/><path class="cls-16" d="M235.1,273.97c-.75,4.12-1.5,8.24-2.25,12.36-9.49-2.46-18.97-4.97-28.76-5.96-6.85-.7-9.75.31-12.26,6.72-7.37,18.86-14.02,37.97-16.82,58.18-.31,2.23.08,4.27,1.06,6.25-.12.47-.24.93-.36,1.4-1.87-1.27-3.8-1.54-5.81-.33-2.61.31-5.23.61-7.84.92.62-11.74-1.79-13.51-14.18-18.76-3.49-1.48-7.16-2.5-10.97-2.89-2.07-4.6-2.48-9.4-2.17-14.39.76-12.01,3.76-23.68,5.2-35.59,9.38.27,18.75,1.11,28.15.03,10.7-1.22,21.39-2.43,31.05-7.71,3.44-1.88,7.26-3.61,7.73-8.35,2.12-2.27,5.39-2.21,7.82-3.88,1.29-.89,3.21-1.09,3.21-3.24,5.91,2.36,11.41,5.94,18.06,6.08-.29,3.05-.58,6.11-.88,9.16Z"/><path class="cls-15" d="M66.99,246.91c0-.36,0-.71,0-1.07,5.78.71,11.81,1.7,16.11-3.49,5.46-6.59,10.99-13.21,11.05-22.62.03-4.32-1.7-8.93,1.35-12.97,1.84.67,3.68,1.33,5.51,1.99,7.63,2.53,8.22,10.23,11.61,15.87.67,1.11,1.02,2.44,1.38,3.71.97,3.45,2.69,3.93,5.81,2.11,6.28-3.67,12.75-7.02,19.15-10.51,1.56,2.77.06,6.24,2.03,8.91-.39,1.36-.77,2.72-1.16,4.08-4.84,2.12-9.65,4.29-14.51,6.34-4.71,1.98-7.18,6.46-6.2,11.6.25,1.3.6,2.57.9,3.86-2.97.41-4.79-1.92-7.15-2.97-1.21-2.04-3.06-3.46-4.84-4.94-1.31-2.88-3.08-5.37-5.9-7.64-.48,2.22-.85,3.94-1.22,5.66-1.03,2.62-2.2,5.2-1.99,8.12-1.97,4.83-3.72,9.74-4.74,14.87-1.88,9.48-6.47,16.37-16.74,18.05-2.34-10.14-4.21-20.37-5.57-30.69-.44-3.37-1.85-6.35-4.88-8.28Z"/><path class="cls-15" d="M215.7,239.84c-4.37-.49-7.64-3.67-11.76-4.79-2-2.69-4-5.37-6-8.06-.02-.5-.04-.99-.05-1.49-.1-3.24-3.28-6.94-1.1-9.33,1.92-2.1,6.06-2.1,9.17-3.18,2.64-.92,5.57-.98,7.94-2.68.66-.08,1.32-.17,1.99-.25.02,9.61.04,19.22.06,28.83-.09.31-.18.63-.25.94Z"/><path class="cls-2" d="M206.88,265.86c-.46,4.73-4.28,6.46-7.73,8.35-9.66,5.28-20.34,6.49-31.05,7.71-9.4,1.07-18.77.24-28.15-.03.01-1.34.03-2.67.04-4.01,2.64.09,5.25.38,7.87.67,7.73.87,15.5.51,23.06-1.69,4.32,2.02,5.56.16,4.99-3.97,5.02-2.16,10.02-4.35,15.06-6.45.88-.37,2.35-.84,2.83-.42,4.47,3.83,8.74.43,13.08-.15Z"/><path class="cls-4" d="M175.91,272.89c.58,4.13-.66,5.99-4.99,3.97-9.63-5.37-20-9.21-29.81-14.16-5.48-2.77-12.06-3.65-16.21-8.86,1.67-.99,3.35-1.97,5.02-2.96,7.19,5.15,15.69,7.69,23.48,11.64,7.36,3.73,14.99,6.94,22.51,10.38Z"/><path class="cls-12" d="M129.92,250.87c-1.67.99-3.35,1.97-5.02,2.96-1.32.37-2.63.73-3.95,1.1-.31-.07-.62-.13-.93-.18-.3-1.29-.65-2.56-.9-3.86-.98-5.14,1.49-9.62,6.2-11.6,4.86-2.05,9.68-4.22,14.51-6.34,1.68,1.67,3.15,3.45,3.29,5.97.24,2.98-3.35,3.58-3.81,6.12,0,0-.36.25-.36.24-.33.2-.65.41-.98.62-3.23.77-5.48,3.13-8.05,4.98Z"/><path class="cls-1" d="M197.94,227c2,2.69,4,5.37,6,8.06-1.58,3.18-4.52,5.8-4.07,9.82-3.6.34-6.81-.26-9.6-2.93-1.54-1.48-3.83-1.74-5.98-2.08-1.56-.25-3.74.13-3.7-2.59.06-3.2,2.42-2.26,4.19-2.38.65-.05,1.3-.06,3.22-.16-2.56-.82-3.96-1.26-5.36-1.72-.83-.27-2.11.18-2.2-1.33,1.87-.04.84-2.81,2.19-2.72,5.26.35,9.94-3.47,15.31-1.96ZM186.19,231.39c-.29-.14-.55-.38-.8-.37-.25,0-.5.26-.74.4.25.13.51.37.76.37.25,0,.5-.25.78-.4Z"/><path class="cls-14" d="M235.97,264.82c-6.65-.14-12.15-3.71-18.06-6.08-1.69-1.27-3.38-2.54-5.07-3.81.96-2.03,2.78-2.04,4.66-2.03,7.79.03,15.58-.04,23.37.03,4.14.03,5.06,1.63,2.82,5.12-1.89,2.94-4.35,5.43-7.72,6.77Z"/><path class="cls-14" d="M141,228.86c-1.97-2.68-.47-6.14-2.03-8.91,1.34-1.01,2.68-2.01,4.03-3.02,8.06-.38,14.4,4.51,22.73,6.45-4.74,3.5-8.48,6.1-12.78,7.83-.2-2.75-.83-5.38-2.16-8.32-1.53,1.46-2.78,2.68-4.05,3.87-1.15,1.07-1.61.55-1.71-.77.29-.37.59-.73.88-1.1.07-.14.14-.27.21-.41-.06.15-.11.3-.17.45-.38.28-.76.56-1.14.84-2.05.07-2.51,2.1-3.82,3.09Z"/><path class="cls-1" d="M101.02,208.77c-1.84-.66-3.68-1.33-5.51-1.99,3.31-3.52,5.13-7.79,5.05-12.51-.11-6,2.64-8.83,8.4-9.19-1.19,8.38-2.35,16.78-7.93,23.7Z"/><path class="cls-2" d="M152.94,231.21c4.3-1.72,8.05-4.33,12.78-7.83-8.33-1.94-14.67-6.83-22.73-6.45-1.08-1.05-.72-1.84.61-1.93,2.46-.16,4.85-.17,7.3.81,4.74,1.9,9.64,3.44,14.49,5.07,1.96.66,3.88,1.25,3.49,3.95-5.35,3.01-10.71,6.02-16.06,9.02.04-.88.09-1.76.13-2.65Z"/><path class="cls-4" d="M152.81,233.86c5.35-3.01,10.71-6.01,16.06-9.02,1.92,1.8.02,2.78-1.02,3.44-8.52,5.41-17.1,10.71-25.71,15.98-.8.49-1.89.53-2.84.78.47-2.54,4.06-3.13,3.82-6.11,3.99-.23,6.81-2.7,9.69-5.06Z"/><path class="cls-4" d="M137.97,245.89c.33-.21.66-.41.98-.62-.33.21-.65.41-.98.62Z"/><path class="cls-2" d="M88.41,168.15c-1.85,2.86-3.69,5.72-5.54,8.58-1.39-4.62-.82-9.31-.89-14.24,3.29,1.03,3.85,4.47,6.42,5.66Z"/><path class="cls-2" d="M80.76,189.09c.03.56-.21.89-.8.91.27-.3.53-.6.8-.91Z"/><path class="cls-15" d="M61.02,242.88c-2.35.35-4.13-1.05-6.06-1.98.26-1.23.52-2.45.78-3.68.1-.14.21-.27.32-.4,1.65,2.02,3.3,4.04,4.96,6.06Z"/><path class="cls-15" d="M67.02,245.88c-.89.05-1.62-.23-2.06-1.06.84.05,1.74,0,2.06,1.06Z"/><path class="cls-15" d="M63.43,243.9c-.97,0-1.96.05-2.47-1.05,1.03-.14,1.82.28,2.47,1.05Z"/><path class="cls-15" d="M65.05,244.9c-.42-.29-.83-.59-1.25-.88.42.29.84.59,1.25.88Z"/><path class="cls-6" d="M173.58,97.98c.06,3.57.12,7.14.17,10.71-.74-.91-1-2.36-2.9-1.15-2.06,1.32-3.11,3.38-4.69,5.04-.12-8.22-.23-16.44-.35-24.65,0-3.98-.01-7.96-.02-11.95-.91-1.47-1.05-3.02-.45-4.64,2.1-1.56,4.37-.55,6.58-.46.28,1.31.56,2.62.84,3.93-1.49,7.79.44,15.45.81,23.17Z"/><path class="cls-1" d="M166.17,112.57c1.57-1.66,2.62-3.72,4.69-5.04,1.9-1.22,2.16.24,2.9,1.15,2.17.59,5.4-2.75,6.41.83.76,2.67-.3,5.89-3.97,6.87-.56.15-.97.85-1.45,1.3-3.19.25-6.08,1.39-8.77,3.09-3.84-1.38-3.47-3.89-1.8-6.74.96-.08,1.58-.62,1.98-1.45Z"/><path class="cls-6" d="M165.99,120.77c2.69-1.69,5.57-2.83,8.77-3.09.37,6.75.74,13.5,1.11,20.26-1.47,2.19-2.94,4.38-4.47,6.67-3.73-3.77-5.85-7.91-5.27-13.39.37-3.44-.06-6.97-.14-10.46Z"/><path class="cls-3" d="M375.68,17.04c3.21.48,4.67,2.79,4.8,5.5.12,2.49-.87,5.31-4.04,5.2-3.41-.11-4.62-2.7-4.67-5.87-.04-2.7,1.25-4.33,3.9-4.84Z"/><path class="cls-2" d="M271.88,203.91c3.78-1.02,7.57-2.16,10.95,1.04,1.1,3.28,2.55,6.46,2.07,10.1-.29,2.18,1.02,2.83,3.03,2.88,3.21.07,6.12,1.46,9.02,2.63,2.53,1.03,2.43,2.65-.02,3.74-3.17,1.42-6.46,2.58-9.69,3.88-2.54,1.02-2.55-.86-2.34-2.3.63-4.53-1.72-5.18-5.53-5.03-6.48.25-12.97-.07-19.45.13-3.51.11-6.73-.66-10.13,3.05-2.4,2.62-8.56,2.42-12.91-.14.93-2.24,1.92-4.47,1.98-6.96,1.49-1.2,2.99-2.4,5.21-4.19-4.95-.29-5.54-4.49-8.17-6.61-1.77-1.42.09-2.29,1.22-2.78,2.87-1.23,5.82-2.29,8.74-3.43,2.04,4.29,7.36,2.24,10.08,5.21.09,1.55-.47,3.54,2.02,3.7,5.33.35,10.55.31,13.92-4.92Z"/><path class="cls-14" d="M215.95,238.9c-.02-9.61-.04-19.22-.06-28.83,2.82-.92,5.66-1.75,8.43-2.79,2.08-.78,3.48-.26,4.43,1.69-.35.86-1.94,1.11-1.42,2.24.22.49,1.38.55,2.12.81,1.09,4.84,1.9,9.77,3.34,14.51,1.24,4.08.67,6.29-3.88,7.46-4.44,1.15-8.65,3.24-12.95,4.91Z"/><path class="cls-1" d="M255.94,205.12c-2.72-2.97-8.04-.93-10.08-5.21-.2-3.67-1.77-6.95-3.11-10.26-1.25-3.08-2.19-6.16-1.96-9.51,5.21,1.84,3.09,7.63,5.95,11.14,1.82-2.28.73-4.81,1.12-7.05.17-.98.11-2.33,1.28-2.38,1.47-.06,1.75,1.36,1.66,2.51-.36,4.81.66,9.2,3.41,13.21,3.48,5.07,10.66,5.31,14.54.42.36.97.73,1.94,1.1,2.9-4.3,2.51-8.81,4.37-13.92,4.23Z"/><path class="cls-1" d="M229.45,212.02c-.73-.26-1.89-.32-2.11-.81-.52-1.13,1.07-1.38,1.42-2.24,3.35-2.24,5.24.22,6.96,2.39,1.31,1.65,2.13,3.69,3.17,5.55-.07,2.49-1.05,4.72-1.98,6.96-.99,0-1.98,0-2.97,0-1.64-3.89-.02-9.02-4.48-11.85Z"/><path class="cls-2" d="M347.77,78.7c4.63.13,9.26.29,13.89.4,1.82.04,3.41.34,3.22,2.68-.16,2.08-1.72,2.15-3.28,2.07-3.29-.15-6.57-.33-9.86-.5-11.61-.45-23.23-.89-34.84-1.39-1.84-.08-4.67.65-4.47-2.38.17-2.59,2.8-1.76,4.47-1.73,10.29.22,20.58.55,30.87.84Z"/><path class="cls-3" d="M353.82,56.69c4.82.09,9.65.18,14.47.27,1.55.03,3.26.16,3.29,2.17.03,2.23-1.89,1.91-3.32,1.93-4.16.05-8.32.03-12.48.03-9.31-.08-18.61-.12-27.91-.26-1.86-.03-4.68.61-4.76-2.18-.1-3.18,2.85-2.58,4.88-2.55,8.61.14,17.23.38,25.84.59Z"/><path class="cls-2" d="M351.81,89.34c.29.14.57.31.87.4,1.79.57,4.96-.63,4.79,2.57-.15,2.88-3.13,1.22-4.73,1.87-9.75-.17-19.47-.65-29.14-2-1.47-.21-3.33-.01-3.3-2.1.03-2.43,2.05-2.17,3.69-2.1,9.28.43,18.55.89,27.83,1.35Z"/><path class="cls-4" d="M355.77,68.01c3.93,1.85,8.11.47,12.15.94,1.53.18,3.73-.49,3.69,2.05-.04,2.54-2.25,2-3.75,1.93-5.09-.22-10.23.65-15.28-.73-1.23-.34-2.64-.44-3.73.65-3.3-.27-6.6-.5-9.89-.83-1.64-.17-4.16.75-4.04-2.22.11-2.55,2.37-1.82,3.88-1.84,5.66-.06,11.32.02,16.97.04Z"/><path class="cls-4" d="M352.8,110.13c3,1.66,6.5.35,9.62,1.66,1.36.57,3.29.5,2.88,2.52-.37,1.82-2.23,1.74-3.71,1.58-5.88-.63-11.74-1.34-17.61-2.02-.38-2.67.68-4.05,3.47-3.93,1.79.08,3.57.13,5.36.19Z"/><path class="cls-4" d="M321.39,97.91c2.97.08,5.94-.03,8.85.85,1.11.34,2.48.35,2.37,1.93-.12,1.62-1.37,2.04-2.8,2.2-5.31.6-10.48-.71-15.7-1.2-.99-.09-1.88-.84-1.73-2.04.14-1.13,1.01-1.7,2.08-1.72,2.31-.06,4.63-.02,6.94-.02Z"/><path class="cls-4" d="M322.56,67.97c2.48,0,4.95-.03,7.43.01,1.24.02,2.38.44,2.49,1.86.11,1.45-.98,2.08-2.23,2.08-5.28,0-10.56-.06-15.84-.17-1.03-.02-1.97-.62-2.02-1.78-.07-1.47,1-2.02,2.25-2.05,2.64-.07,5.28-.02,7.92-.02,0,.03,0,.05,0,.08Z"/><path class="cls-3" d="M315.9,55.13c2.1.04,3.94.3,3.87,2.8-.06,2.14-1.8,1.96-3.25,1.96-1.75-.01-4.05.4-4.27-2.06-.22-2.48,2.12-2.37,3.65-2.7Z"/><path class="cls-16" d="M251.7,132.31c.01-5.76,2.89-10.52,6.87-11.39,5.32-1.16,10.8,1.92,13,7.58,2.09,5.4,2.26,10.71-2,15.3-2.58,2.78-5.62,3.9-9.39,2.35-5.52-2.27-8.49-7.01-8.48-13.83ZM259.65,128.99c.69,3.19-1.28,6.17,1.44,7.58,1.34.69,4.15-1.18,4.2-2.64.1-2.56-2.68-3.28-5.65-4.94Z"/><path class="cls-16" d="M320.76,202.01c1.6,1.96,6.45,2.2,5.26,4.87-1.22,2.76-4.61-.16-6.93-.82-16.33-4.67-32.62-9.5-48.93-14.28.34-2.28.69-4.56,1.03-6.84,8.25,1.16,16.4,2.81,24.49,4.79,2.68.66,4.64,1.81,5.68,4.75.75,2.12,2.72,3.73,5.44,3.45,4.39,2.23,9.1,3.4,13.95,4.07Z"/><path class="cls-2" d="M306.81,197.94c-2.72.28-4.7-1.33-5.44-3.45-1.04-2.94-3-4.09-5.68-4.75-8.09-1.99-16.24-3.64-24.49-4.79-.32-1.41-.07-2.75.52-4.04,2.75.52,5.51.99,8.24,1.57,5.16,1.09,10.29,2.38,15.47,3.34,4.04.75,5.14-.35,4.46-3.9,0-.65.01-1.31.02-1.96,1.37.11,2.9-.49,3.94.96,0,2.66.09,5.33-.01,7.99-.13,3.22,1.71,5.22,4.02,6.99-.81.44-.99,1.21-1.05,2.04Z"/><path class="cls-7" d="M299.89,181.92c.68,3.55-.42,4.65-4.46,3.9-5.18-.97-10.31-2.25-15.47-3.34-2.74-.58-5.5-1.05-8.24-1.57.04-1.33.07-2.65.11-3.98,9.36,1.67,18.71,3.33,28.07,5Z"/><path class="cls-4" d="M299.89,181.92c-9.36-1.67-18.71-3.33-28.07-5-.01-1.66-.03-3.32-.04-4.98,9.4,2.58,19.12,4.04,28.12,8.02,0,.66-.01,1.31-.02,1.96Z"/><path class="cls-7" d="M76.97,338.86c.13.1.3.18.38.32.87,1.51,1.48,3.88,3.69,3.09,1.83-.65.58-2.95.99-4.46,8.28-.53,16.26-3.59,24.69-2.97.06,1.98.11,3.95.2,5.93.04,1.04.24,2.02,1.61,1.98,1.32-.04,1.51-.98,1.61-2.03.18-1.95-.21-3.98.76-5.84,2.37-.01,4.75-.03,7.12-.04,1.84,1.17,3.08,3.3,5.52,3.52.08,4.62.13,9.23.24,13.85.03,1.1-.2,2.53,1.42,2.68,2.05.19,1.94-1.48,1.83-2.71-.43-4.79,1.37-9.49.47-14.28.77,0,1.55-.02,2.32-.02,3.03,4.55,3.96,10.76,10.14,12.82.06.23.11.47.15.7-.33.57-.55,1.26-1,1.7-3.66,3.53-5.38,3.05-6.91-1.7-.38-1.19.31-3.69-2.09-3.11-1.92.46-1.14,2.49-.91,3.87,1.15,6.74,1.19,6.75-5.74,7.78-13.26,1.97-26.35.85-39.52-1.38-4.71-.8-8.39-2.6-11.99-5.31-5.81-4.38-5.51-9.41.88-12.77,1.3-.69,2.76-1.08,4.15-1.6Z"/><path class="cls-7" d="M187.92,353.88c.16-.25.36-.3.62-.15,4.14,1.95,8.29-.72,12.47.07,2.98.56,4.66-.91,4.83-3.98.08-3.76.69-7.43,1.97-10.97,1.05.02,2.09.04,3.14.06,0,.99-.01,1.98-.02,2.98-.33,2.84-.66,5.68-.98,8.52.27,3.34,3.53,3.28,5.47,4.35,5.05,2.77,10.35,5.81,16.24,1.74,1.75,2.28,4.75,2.88,6.6,5.14,2.17,2.66,2.3,4.96-.08,7.44-5.16,5.38-12.15,6.32-18.92,7.76-.64.14-1.33.03-1.98.14-10.62,1.79-10.58,1.79-9.49-8.86.15-1.48.86-3.69-1.56-4.06-2.47-.38-2.92,1.75-3.25,3.55-1.75,9.59-1.74,9.74-11.51,9.2-5.8-.32-11.29-2.36-16.78-4.18-1.25-.41-1.72-1.47-1.77-2.73,2.66,0,5.32,0,7.98.02,2.94.03,4.75-1.23,5.02-4.3,1.14-2.98,1.21-6.08,1.01-9.21.33-.84.66-1.68,1-2.52Z"/><path class="cls-1" d="M140,277.88c-.01,1.34-.03,2.67-.04,4.01-1.44,11.9-4.44,23.58-5.2,35.59-.32,4.99.09,9.8,2.17,14.39-.29,3.14,2.64,5.49,2.09,8.69-1.65,1.8-3.26,1.23-4.76-.17-1.19-1.12-1.61-2.95-3.28-3.65-2.77-10.56-3.4-21.47-5.35-32.17.06-.86.11-1.73.17-2.59,0-.74,0-1.47,0-2.21-.02-.89-.04-1.78-.06-2.68-.23-3.6,1.48-7.44-1.31-10.73,2.67-1.4,3.35-3.85,3.48-6.59.27-5.51-.9-10.75-2.88-15.85,10.99-.04,14.79,3.5,14.97,13.95Z"/><path class="cls-13" d="M162.07,353.52c2.61-.31,5.23-.61,7.84-.92-.56,4.4,1.33,8.6,1.07,12.98-5.64-.71-11.33-1.27-16.08-4.9-.37-5.15,3.68-5.88,7.17-7.17Z"/><path class="cls-6" d="M154.9,360.68c4.75,3.62,10.44,4.18,16.08,4.9,3.01.17,5.91,1.46,9,.84,2.08.44,3.95-.6,5.94-.8-.27,3.07-2.07,4.33-5.02,4.3-2.66-.03-5.32-.02-7.98-.02-4.82-1.06-9.73-1.85-14.43-3.3-2.42-.75-5.77-1.91-3.59-5.9Z"/><path class="cls-14" d="M229.67,341.6c3.01,2.36,2.68,6.21,4.12,9.27.05,1.83-1.27,2.94-2.25,4.23-1.89.31-3.64,1.52-5.68.93-.04-3.52-.09-7.04-.13-10.56l3.94-3.88Z"/><path class="cls-11" d="M140.1,351.39c-.04-.24-.09-.47-.15-.7.02-3.33.03-6.66.05-9.99,4.39.94,6.89,4.43,9.69,7.41,1.91,2.02.72,3.47-1.64,3.6-2.64.14-5.3-.19-7.95-.31Z"/><path class="cls-13" d="M140,340.7c-.02,3.33-.03,6.66-.05,9.99-6.18-2.06-7.11-8.27-10.14-12.82.39-.38.78-.76,1.17-1.14,1.67.71,2.08,2.54,3.28,3.65,1.49,1.4,3.1,1.97,4.76.17.33.05.66.09.99.14Z"/><path class="cls-6" d="M225.86,356.04c2.04.58,3.79-.62,5.68-.93.04.46.08.92.12,1.38-5.9,4.07-11.19,1.03-16.24-1.74-1.95-1.07-5.2-1.01-5.48-4.35,3.46.34,5.7,3.88,9.41,3.57,1.77,1.97,4.09,2.19,6.52,2.08Z"/><path class="cls-6" d="M125.03,263.93c1.98,5.1,3.15,10.34,2.88,15.85-.14,2.74-.81,5.19-3.48,6.59-2.63,1.24-5.21,2.57-7.41,4.51-3.06.52-5.52,2.35-8.19,3.73-1.23.47-2.47.92-3.68,1.43-7.79,3.25-15.48,6.86-24.2,6.81-2.04-5.48-2.57-11.26-3.51-16.96,10.26-1.67,14.85-8.57,16.73-18.05,1.02-5.12,2.77-10.03,4.74-14.87,3.96-.86,7.94-1.55,12.02-1.06,3.99,3.03,7.97,6.05,11.96,9.08.71.98,1.42,1.96,2.13,2.94Z"/><path class="cls-13" d="M80.95,302.85c8.72.04,16.4-3.57,24.2-6.81,1.21-.51,2.45-.95,3.68-1.43.72,3.44,1.26,6.97,4.34,9.3-1.07.99-2.14,1.97-3.21,2.96-6.21,3-11.96,6.89-18.58,9.15-4.17,1.42-6.48.65-7.9-3.69-1.03-3.13-2.26-6.16-2.53-9.48Z"/><path class="cls-16" d="M82.98,330.86c-.04-1.72-.09-3.45-.13-5.17,1.25-.53,2.5-1.07,3.75-1.6,6.07-.49,10.74-4.31,16-6.71,1.75-.8,3.15-2.37,5.26-2.4-.92,4.58-.96,9.23-1.11,13.86-7.92.67-15.85,1.34-23.77,2.01Z"/><path class="cls-13" d="M106.74,328.84c.15-4.64.19-9.29,1.11-13.86.36-.76,1.01-1.04,1.8-1.08,3.76,3.4,4.19,8.52,6.51,12.67-.17,1.05-.35,2.1-.52,3.15-1.04-1.21-1.65-3.58-3.4-3.14-1.77.45-1.26,2.78-1.38,4.36-.11,1.31,0,2.63,0,3.95-.97,1.85-.58,3.88-.76,5.84-.1,1.05-.29,1.99-1.61,2.03-1.37.04-1.56-.94-1.61-1.98-.08-1.98-.13-3.95-.2-5.93.01-2,.02-3.99.03-5.99Z"/><path class="cls-1" d="M116.18,326.56c-2.32-4.14-2.75-9.26-6.51-12.67.09-.34.19-.67.28-1.01,2.65-1.32,5.3-2.64,7.94-3.96.57,6.5,1.9,12.78,5.15,18.54-2.66,2.54-4.84,1.39-6.86-.9Z"/><path class="cls-14" d="M117.89,308.93c-2.65,1.32-5.3,2.64-7.94,3.96,0-2,0-4.01,0-6.01,1.07-.99,2.14-1.97,3.21-2.96,4.26-1.54,8.92-2.61,9.84-8.18.91.45,1.82.91,2.73,1.36.02.89.04,1.78.06,2.68-.79.74-.79,1.47,0,2.2-.06.86-.11,1.73-.17,2.59-.99.3-2.15.28-2.69,1.43-1.87.65-3.65,1.46-5.04,2.93Z"/><path class="cls-2" d="M55.74,237.22c-.26,1.23-.52,2.45-.78,3.68-8.89-3.13-17.57-6.75-25.98-11,7.32.02,13.58,4.07,20.56,5.42,2.11.41,4.13,1.25,6.2,1.89Z"/><path class="cls-2" d="M106.74,328.84c-.01,2-.02,3.99-.03,5.99-8.42-.62-16.4,2.44-24.69,2.97.32-2.32.63-4.63.95-6.95,7.92-.67,15.85-1.34,23.77-2.01Z"/><path class="cls-7" d="M306.81,197.94c.05-.83.23-1.6,1.05-2.04,4.28,1.46,8.99,1.49,12.98,3.91-.03.73-.05,1.46-.08,2.2-4.85-.67-9.55-1.84-13.95-4.07Z"/><path class="cls-16" d="M207.79,338.84c-1.27,3.55-1.89,7.21-1.96,10.97-5.25-.71-10.49.09-15.73.03,3.97-13.15,8.83-25.99,14.41-38.53,1.23-2.77,2.93-7.67,7.95-3.7-1.62,2.88-2.84,5.83-1.53,9.2-1.65,7.25-3,14.55-3.14,22.02Z"/><path class="cls-13" d="M256.99,320.1c.1,1.86-.52,3.52-1.24,5.22-1.72,4.08-4.24,5.36-8.58,3.6-5.51-2.24-10.58-5.26-15.76-8.09-1.44-.79-2.73-1.85-4.44-2.04-1.4-1.29-3.29-2.07-4.2-3.9,1.27-.62,1.08-1.79,1.09-2.89,6.15,1.99,12.31,3.94,18.43,5.99,4.78,1.6,9.62,2.57,14.69,2.11Z"/><path class="cls-14" d="M222.78,314.89c.91,1.83,2.79,2.6,4.2,3.9-.05,2.13-.1,4.26-.16,6.39-3.96-2.08-7.92-4.17-11.88-6.25-1.36-.65-2.32-2.08-4.01-2.1-1.31-3.37-.09-6.32,1.53-9.2,1.13.48,2.26.95,3.4,1.43.55,4.03,3.88,4.77,6.93,5.83Z"/><path class="cls-2" d="M190.1,349.85c5.24.06,10.49-.74,15.73-.03-.17,3.08-1.84,4.55-4.83,3.98-4.18-.79-8.33,1.88-12.47-.07.52-1.29,1.04-2.59,1.56-3.88Z"/><path class="cls-1" d="M187.92,353.88c-.33.84-.66,1.68-1,2.52-2.13,1.57-4.4,2.86-7,3.5-3.78-.89-3.88-4.01-4.21-6.98.12-.47.24-.93.36-1.4,3.47,3.22,7.83,1.92,11.85,2.35Z"/><path class="cls-11" d="M222.78,314.89c-3.05-1.07-6.37-1.81-6.93-5.83,2.98.15,5.21,2.34,8.01,2.95,0,1.1.18,2.27-1.09,2.89Z"/><path class="cls-4" d="M234.91,234.99c-.06,11.39-3.5,13.56-13.72,8.54-1.65-.81-3.97-1.03-4.36-3.51,6.02-1.72,12.04-3.44,18.06-5.16,0,0,.02.14.02.14Z"/><path class="cls-2" d="M234.89,234.85c-6.02,1.72-12.04,3.44-18.06,5.16-.38-.05-.76-.11-1.13-.17.07-.32.16-.63.25-.94,4.31-1.68,8.51-3.76,12.96-4.91,4.55-1.18,5.12-3.38,3.88-7.46-1.44-4.74-2.25-9.66-3.34-14.51,4.46,2.83,2.83,7.96,4.47,11.85.85,3.61,3.25,7.09.97,10.98Z"/><path class="cls-6" d="M214.95,318.92c3.96,2.08,7.92,4.17,11.88,6.25.44.56.88,1.12,1.32,1.68.29,4.94,1.87,9.75,1.53,14.75-1.31,1.29-2.63,2.58-3.94,3.87-1.62.17-3.24.35-4.86.52-.56-1.07-1.11-2.14-1.67-3.22-1.51-7.61-3.02-15.22-4.52-22.83.09-.34.18-.69.28-1.03Z"/><path class="cls-8" d="M255.94,205.12c5.11.14,9.61-1.72,13.92-4.23.67,1,1.35,2.01,2.02,3.01-3.37,5.23-8.59,5.27-13.92,4.92-2.49-.16-1.93-2.15-2.02-3.7Z"/><path class="cls-11" d="M175.72,352.93c.33,2.97.43,6.08,4.21,6.98.02,2.17.03,4.34.05,6.51-3.08.62-5.99-.66-9-.84.25-4.38-1.63-8.58-1.07-12.98,2.01-1.21,3.94-.94,5.81.33Z"/><path class="cls-1" d="M152.81,233.86c-2.88,2.36-5.7,4.83-9.69,5.06-.14-2.52-1.61-4.3-3.29-5.97.39-1.36.77-2.72,1.16-4.08,1.3-.99,1.77-3.02,3.82-3.09,0,0,.21.21.21.21.1,1.31.56,1.84,1.71.77,1.27-1.19,2.52-2.4,4.05-3.87,1.34,2.94,1.96,5.57,2.16,8.32-.04.88-.09,1.77-.13,2.65Z"/><path class="cls-2" d="M110.94,251.92c-4.08-.49-8.06.2-12.02,1.06-.21-2.92.96-5.5,1.99-8.12,2.67-.39,4.55,2.02,7.12,1.98,1.78,1.48,3.62,2.9,4.84,4.94-.65.05-1.29.09-1.94.14Z"/><path class="cls-1" d="M110.94,251.92c.65-.05,1.29-.09,1.94-.14,2.35,1.06,4.18,3.38,7.15,2.97.31.05.62.11.93.18.87,1.95,2.32,3.72,1.95,6.07-3.99-3.03-7.97-6.05-11.96-9.08Z"/><path class="cls-4" d="M108.03,246.84c-2.57.04-4.46-2.38-7.12-1.98.37-1.72.74-3.44,1.22-5.66,2.82,2.27,4.6,4.77,5.9,7.64Z"/><path class="cls-7" d="M122.89,260.99c.37-2.35-1.08-4.11-1.95-6.07,1.32-.37,2.63-.73,3.95-1.1,4.15,5.22,10.73,6.1,16.21,8.86,9.82,4.96,20.18,8.79,29.81,14.16-7.57,2.2-15.33,2.56-23.06,1.69-2.62-.29-5.23-.58-7.87-.67-.18-10.45-3.98-13.99-14.97-13.95-.71-.98-1.42-1.96-2.13-2.93Z"/><path class="cls-7" d="M186.19,231.39c-.28.15-.53.4-.78.4-.25,0-.51-.24-.76-.37.25-.14.49-.39.74-.4.25,0,.51.23.8.37Z"/><path class="cls-1" d="M145.91,224.89c-.3.36-.59.73-.88,1.1,0,0-.21-.21-.21-.21.38-.28.76-.56,1.14-.84,0,0-.04-.04-.04-.04Z"/><path class="cls-1" d="M145.95,224.93l.17-.45c-.07.14-.14.27-.21.41,0,0,.04.04.04.04Z"/><path class="cls-3" d="M259.65,128.99c2.96,1.66,5.74,2.38,5.65,4.94-.06,1.47-2.87,3.34-4.2,2.64-2.72-1.41-.75-4.39-1.44-7.58Z"/><path class="cls-4" d="M122.93,306c.54-1.15,1.71-1.12,2.69-1.43,1.95,10.69,2.58,21.61,5.35,32.17-.39.38-.78.76-1.17,1.14-.77,0-1.55.02-2.32.02-1.36-3.56-.49-7.62-2.52-11.03.44-7.07-1.68-13.88-2.04-20.87Z"/><path class="cls-13" d="M124.97,326.87c2.03,3.4,1.16,7.47,2.52,11.03.9,4.79-.9,9.5-.47,14.28.11,1.24.22,2.9-1.83,2.71-1.62-.15-1.4-1.59-1.42-2.68-.11-4.62-.16-9.23-.24-13.85.67-3.53.03-7.2,1.28-10.66.06-.28.11-.55.16-.83Z"/><path class="cls-11" d="M124.81,327.7c-1.25,3.45-.62,7.13-1.28,10.66-2.45-.22-3.68-2.35-5.52-3.52-.78-1.71-1.57-3.42-2.35-5.13.17-1.05.35-2.1.52-3.15,2.03,2.29,4.2,3.44,6.86.9.59.08,1.18.16,1.77.24Z"/><path class="cls-2" d="M115.65,329.71c.78,1.71,1.57,3.42,2.35,5.13-2.37.01-4.75.03-7.12.04-.01-1.32-.12-2.64,0-3.95.13-1.58-.39-3.92,1.38-4.36,1.74-.44,2.36,1.93,3.4,3.14Z"/><path class="cls-13" d="M219.2,342.78c.56,1.07,1.11,2.14,1.67,3.22-.55,2.65,1.38,5.77-1.52,7.96-3.7.31-5.95-3.23-9.41-3.57.33-2.84.66-5.68.98-8.52,2.84-.46,5.53.52,8.28.91Z"/><path class="cls-2" d="M219.2,342.78c-2.75-.39-5.43-1.37-8.28-.91,0-.99.01-1.98.02-2.98,2.1-6.15,1.43-12.84,3.74-18.95,1.51,7.61,3.02,15.22,4.52,22.83Z"/><path class="cls-4" d="M214.67,319.95c-2.31,6.11-1.64,12.8-3.74,18.95-1.05-.02-2.09-.04-3.14-.05.14-7.47,1.49-14.77,3.14-22.02,1.7.01,2.65,1.45,4.01,2.1-.09.34-.18.69-.28,1.03Z"/><path class="cls-14" d="M179.97,366.42c-.02-2.17-.03-4.34-.05-6.51,2.6-.64,4.87-1.93,7-3.5.2,3.13.13,6.23-1.01,9.21-1.99.2-3.87,1.24-5.94.8Z"/><path class="cls-2" d="M125.73,297.1c-.91-.45-1.82-.91-2.73-1.36-2-1.62-4-3.24-6-4.86,2.2-1.95,4.78-3.27,7.41-4.51,2.79,3.29,1.08,7.13,1.31,10.73Z"/><path class="cls-4" d="M125.79,301.98c-.79-.73-.8-1.47,0-2.2,0,.73,0,1.47,0,2.2Z"/><path class="cls-11" d="M219.34,353.96c2.9-2.2.97-5.32,1.52-7.96,1.62-.17,3.24-.35,4.86-.52.04,3.52.09,7.04.13,10.56-2.43.11-4.75-.11-6.52-2.08Z"/><path class="cls-11" d="M117.01,290.88c2,1.62,4,3.24,6,4.86-.92,5.57-5.58,6.64-9.84,8.18-3.08-2.34-3.62-5.86-4.34-9.3,2.67-1.38,5.13-3.21,8.19-3.73Z"/><path class="cls-16" d="M124.81,327.7c-.59-.08-1.18-.16-1.77-.24-3.25-5.75-4.57-12.04-5.15-18.54,1.39-1.47,3.17-2.28,5.04-2.93.36,6.99,2.48,13.81,2.04,20.87-.04.28-.1.56-.16.83Z"/></svg>