<?xml version="1.0" encoding="UTF-8"?>
<!DOCTYPE svg PUBLIC "-//W3C//DTD SVG 1.1//EN" "http://www.w3.org/Graphics/SVG/1.1/DTD/svg11.dtd">
<svg xmlns="http://www.w3.org/2000/svg" version="1.1" width="231px" height="116px" style="shape-rendering:geometricPrecision; text-rendering:geometricPrecision; image-rendering:optimizeQuality; fill-rule:evenodd; clip-rule:evenodd" xmlns:xlink="http://www.w3.org/1999/xlink">
<g><path style="opacity:0.941" fill="#34b6e5" d="M 119.5,-0.5 C 120.167,-0.5 120.833,-0.5 121.5,-0.5C 127.102,3.64314 133.102,7.30981 139.5,10.5C 140.665,18.8134 140.832,27.1467 140,35.5C 136.984,37.1738 133.984,38.8405 131,40.5C 130.228,40.3552 129.561,40.0219 129,39.5C 126.394,34.5648 123.394,29.8981 120,25.5C 116.904,30.7017 113.571,35.7017 110,40.5C 106.612,39.223 103.445,37.5564 100.5,35.5C 99.3351,27.5208 99.1684,19.5208 100,11.5C 106.48,7.3493 112.98,3.3493 119.5,-0.5 Z"/></g>
<g><path style="opacity:0.948" fill="#34b6e5" d="M 94.5,40.5 C 98.6401,42.7388 102.64,45.2388 106.5,48C 103.167,53 99.8333,58 96.5,63C 102.825,63.4995 109.158,63.6662 115.5,63.5C 115.826,67.8839 115.492,72.2172 114.5,76.5C 108.664,80.2524 102.664,83.7524 96.5,87C 95.1667,87.6667 93.8333,87.6667 92.5,87C 86.7495,83.3742 80.9162,79.8742 75,76.5C 74.3333,68.5 74.3333,60.5 75,52.5C 81.4803,48.3493 87.9803,44.3493 94.5,40.5 Z"/></g>
<g><path style="opacity:0.948" fill="#34b6e5" d="M 145.5,40.5 C 152.552,44.11 159.385,48.11 166,52.5C 166.667,60.5 166.667,68.5 166,76.5C 160.084,79.8742 154.25,83.3742 148.5,87C 147.167,87.6667 145.833,87.6667 144.5,87C 138.336,83.7524 132.336,80.2524 126.5,76.5C 125.508,72.2172 125.174,67.8839 125.5,63.5C 131.842,63.6662 138.175,63.4995 144.5,63C 141.167,58 137.833,53 134.5,48C 138.233,45.4772 141.899,42.9772 145.5,40.5 Z"/></g>
<g><path style="opacity:0.909" fill="#34b6e5" d="M 109.5,42.5 C 116.833,42.5 124.167,42.5 131.5,42.5C 131.5,43.5 131.5,44.5 131.5,45.5C 128.833,45.5 126.167,45.5 123.5,45.5C 123.5,50.8333 123.5,56.1667 123.5,61.5C 121.833,61.5 120.167,61.5 118.5,61.5C 118.5,56.1667 118.5,50.8333 118.5,45.5C 115.5,45.5 112.5,45.5 109.5,45.5C 109.5,44.5 109.5,43.5 109.5,42.5 Z"/></g>
<g><path style="opacity:0.909" fill="#34b6e5" d="M 0.5,87.5 C 7.83333,87.5 15.1667,87.5 22.5,87.5C 22.5,88.5 22.5,89.5 22.5,90.5C 19.8333,90.5 17.1667,90.5 14.5,90.5C 14.5,95.8333 14.5,101.167 14.5,106.5C 12.8333,106.5 11.1667,106.5 9.5,106.5C 9.5,101.167 9.5,95.8333 9.5,90.5C 6.5,90.5 3.5,90.5 0.5,90.5C 0.5,89.5 0.5,88.5 0.5,87.5 Z"/></g>
<g><path style="opacity:0.909" fill="#34b6e5" d="M 117.5,87.5 C 124.833,87.5 132.167,87.5 139.5,87.5C 139.5,88.5 139.5,89.5 139.5,90.5C 136.833,90.5 134.167,90.5 131.5,90.5C 131.5,95.8333 131.5,101.167 131.5,106.5C 129.833,106.5 128.167,106.5 126.5,106.5C 126.5,101.167 126.5,95.8333 126.5,90.5C 123.5,90.5 120.5,90.5 117.5,90.5C 117.5,89.5 117.5,88.5 117.5,87.5 Z"/></g>
<g><path style="opacity:0.867" fill="#34b6e5" d="M 25.5,91.5 C 31.4254,91.1918 37.2588,91.5251 43,92.5C 43.6667,94.8333 43.6667,97.1667 43,99.5C 41.6012,100.227 40.1012,100.727 38.5,101C 40.8333,102.667 43.1667,104.333 45.5,106C 43.1667,106.667 40.8333,106.667 38.5,106C 36.597,103.595 34.2637,101.761 31.5,100.5C 30.5344,102.396 30.2011,104.396 30.5,106.5C 28.8333,106.5 27.1667,106.5 25.5,106.5C 25.5,101.5 25.5,96.5 25.5,91.5 Z M 30.5,94.5 C 42.5,95.5 42.5,96.5 30.5,97.5C 30.5,96.5 30.5,95.5 30.5,94.5 Z"/></g>
<g><path style="opacity:0.805" fill="#34b6e5" d="M 48.5,91.5 C 50.1667,91.5 51.8333,91.5 53.5,91.5C 53.5,95.5 53.5,99.5 53.5,103.5C 56.5,103.5 59.5,103.5 62.5,103.5C 62.5,99.5 62.5,95.5 62.5,91.5C 64.1667,91.5 65.8333,91.5 67.5,91.5C 67.6658,96.1785 67.4992,100.845 67,105.5C 61,106.833 55,106.833 49,105.5C 48.5008,100.845 48.3342,96.1785 48.5,91.5 Z"/></g>
<g><path style="opacity:0.856" fill="#34b6e5" d="M 71.5,91.5 C 77.8333,91.5 84.1667,91.5 90.5,91.5C 90.5,92.5 90.5,93.5 90.5,94.5C 88.1667,94.5 85.8333,94.5 83.5,94.5C 83.5,98.5 83.5,102.5 83.5,106.5C 81.8333,106.5 80.1667,106.5 78.5,106.5C 78.5,102.5 78.5,98.5 78.5,94.5C 76.1667,94.5 73.8333,94.5 71.5,94.5C 71.5,93.5 71.5,92.5 71.5,91.5 Z"/></g>
<g><path style="opacity:0.824" fill="#34b6e5" d="M 94.5,91.5 C 96.1667,91.5 97.8333,91.5 99.5,91.5C 99.5,93.5 99.5,95.5 99.5,97.5C 102.833,97.5 106.167,97.5 109.5,97.5C 109.5,95.5 109.5,93.5 109.5,91.5C 111.167,91.5 112.833,91.5 114.5,91.5C 114.5,96.5 114.5,101.5 114.5,106.5C 112.833,106.5 111.167,106.5 109.5,106.5C 109.5,104.5 109.5,102.5 109.5,100.5C 106.167,100.5 102.833,100.5 99.5,100.5C 99.5,102.5 99.5,104.5 99.5,106.5C 97.8333,106.5 96.1667,106.5 94.5,106.5C 94.5,101.5 94.5,96.5 94.5,91.5 Z"/></g>
<g><path style="opacity:0.847" fill="#34b6e5" d="M 142.5,91.5 C 148.176,91.3339 153.843,91.5006 159.5,92C 160.602,94.4009 160.769,96.9009 160,99.5C 158.601,100.227 157.101,100.727 155.5,101C 157.641,102.308 159.641,103.808 161.5,105.5C 164.857,101.465 167.857,97.1321 170.5,92.5C 172.5,91.1667 174.5,91.1667 176.5,92.5C 178.916,97.0006 181.583,101.334 184.5,105.5C 183.667,105.833 182.833,106.167 182,106.5C 179.361,104.554 176.361,103.554 173,103.5C 169.449,105.04 165.616,106.04 161.5,106.5C 159.5,106.333 157.5,106.167 155.5,106C 153.597,103.595 151.264,101.761 148.5,100.5C 147.534,102.396 147.201,104.396 147.5,106.5C 145.833,106.5 144.167,106.5 142.5,106.5C 142.5,101.5 142.5,96.5 142.5,91.5 Z M 147.5,94.5 C 159.5,95.5 159.5,96.5 147.5,97.5C 147.5,96.5 147.5,95.5 147.5,94.5 Z M 172.5,95.5 C 177.157,99.3227 176.49,100.823 170.5,100C 171.582,98.6703 172.249,97.1703 172.5,95.5 Z"/></g>
<g><path style="opacity:0.879" fill="#34b6e5" d="M 187.5,91.5 C 193.176,91.3339 198.843,91.5006 204.5,92C 205.406,93.6995 205.739,95.5328 205.5,97.5C 203.833,97.5 202.167,97.5 200.5,97.5C 200.5,96.5 200.5,95.5 200.5,94.5C 197.5,94.5 194.5,94.5 191.5,94.5C 191.5,97.5 191.5,100.5 191.5,103.5C 194.5,103.5 197.5,103.5 200.5,103.5C 200.5,102.5 200.5,101.5 200.5,100.5C 202.167,100.5 203.833,100.5 205.5,100.5C 205.739,102.467 205.406,104.301 204.5,106C 198.843,106.499 193.176,106.666 187.5,106.5C 187.5,101.5 187.5,96.5 187.5,91.5 Z"/></g>
<g><path style="opacity:0.915" fill="#34b6e5" d="M 210.5,91.5 C 216.167,91.5 221.833,91.5 227.5,91.5C 227.5,92.5 227.5,93.5 227.5,94.5C 223.5,94.5 219.5,94.5 215.5,94.5C 215.5,95.5 215.5,96.5 215.5,97.5C 217.833,97.5 220.167,97.5 222.5,97.5C 222.5,98.5 222.5,99.5 222.5,100.5C 220.167,100.5 217.833,100.5 215.5,100.5C 215.5,101.5 215.5,102.5 215.5,103.5C 219.5,103.5 223.5,103.5 227.5,103.5C 227.5,104.5 227.5,105.5 227.5,106.5C 221.833,106.5 216.167,106.5 210.5,106.5C 210.5,101.5 210.5,96.5 210.5,91.5 Z"/></g>
</svg>
